# Blender v3.5.0 OBJ File: 'player.blend'
# www.blender.org
mtllib player/Parts/pRLeg1/pRLeg1.mtl
o 立方体
v 0.158221 -2.019397 -0.266971
v 0.263910 -0.314067 -0.379284
v 0.158221 -2.019397 0.266971
v 0.263910 -0.314067 0.379284
v -0.160459 -2.019397 -0.266971
v -0.333399 -0.314067 -0.375715
v -0.160459 -2.019397 0.266971
v -0.333399 -0.314067 0.375715
vt 0.053041 0.406873
vt 0.030148 0.467397
vt 0.034126 0.406873
vt 0.685429 0.220563
vt 0.670372 0.160029
vt 0.681661 0.160025
vt 0.499837 0.090867
vt 0.477071 0.030148
vt 0.495985 0.030148
vt 0.368235 0.651595
vt 0.353178 0.712129
vt 0.356946 0.651591
vt 0.965664 0.544910
vt 0.954375 0.563824
vt 0.954375 0.544910
vt 0.911340 0.663716
vt 0.890181 0.690461
vt 0.890181 0.663842
vt 0.057019 0.467397
vt 0.664269 0.220563
vt 0.473219 0.090867
vt 0.374338 0.712129
vt 0.965664 0.563824
vt 0.911340 0.690587
vn 0.9981 -0.0619 0.0000
vn 0.0000 -0.0657 0.9978
vn -0.9949 -0.1009 0.0000
vn 0.0000 -0.0657 -0.9978
vn 0.0000 -1.0000 0.0000
vn 0.0000 1.0000 0.0000
vn -0.0060 -0.0642 0.9979
vn -0.0060 -0.0642 -0.9979
usemtl マテリアル.006
s off
f 1/1/1 4/2/1 3/3/1
f 4/4/2 7/5/2 3/6/2
f 8/7/3 5/8/3 7/9/3
f 5/10/4 2/11/4 1/12/4
f 7/13/5 1/14/5 3/15/5
f 4/16/6 6/17/6 8/18/6
f 1/1/1 2/19/1 4/2/1
f 4/4/7 8/20/7 7/5/7
f 8/7/3 6/21/3 5/8/3
f 5/10/8 6/22/8 2/11/8
f 7/13/5 5/23/5 1/14/5
f 4/16/6 2/24/6 6/17/6
