# Blender v3.5.0 OBJ File: 'player.blend'
# www.blender.org
mtllib pBody.mtl
o Cube.001
v -1.016658 1.973783 0.671133
v -0.422471 0.306149 0.489029
v -1.016658 1.973783 -0.671133
v -0.422471 0.306149 -0.489029
v 1.016658 1.973783 0.671133
v 0.422471 0.306149 0.489029
v 1.016658 1.973783 -0.671133
v 0.422471 0.306149 -0.489029
vt 0.090981 0.030148
vt 0.030148 0.100995
vt 0.030148 0.030148
vt 0.327364 0.161291
vt 0.268237 0.206673
vt 0.268237 0.176742
vt 0.088518 0.161291
vt 0.030148 0.214038
vt 0.030148 0.179391
vt 0.829885 0.663716
vt 0.799954 0.698362
vt 0.799954 0.663716
vt 0.209647 0.030148
vt 0.151276 0.082895
vt 0.151276 0.048248
vt 0.207941 0.161291
vt 0.148814 0.206673
vt 0.148814 0.176742
vt 0.090981 0.100995
vt 0.327364 0.222124
vt 0.088518 0.232138
vt 0.829885 0.698362
vt 0.209647 0.100995
vt 0.207941 0.222124
vn 0.0000 1.0000 0.0000
vn 0.0000 -0.1086 -0.9941
vn 0.9420 -0.3356 0.0000
vn 0.0000 -1.0000 0.0000
vn -0.9420 -0.3356 0.0000
vn 0.0000 -0.1086 0.9941
usemtl Material.001
s off
f 5/1/1 3/2/1 1/3/1
f 3/4/2 8/5/2 4/6/2
f 7/7/3 6/8/3 8/9/3
f 2/10/4 8/11/4 6/12/4
f 1/13/5 4/14/5 2/15/5
f 5/16/6 2/17/6 6/18/6
f 5/1/1 7/19/1 3/2/1
f 3/4/2 7/20/2 8/5/2
f 7/7/3 5/21/3 6/8/3
f 2/10/4 4/22/4 8/11/4
f 1/13/5 3/23/5 4/14/5
f 5/16/6 1/24/6 2/17/6
