# Blender v3.5.0 OBJ File: 'player.blend'
# www.blender.org
mtllib pLHand.mtl
o 立方体.005
v -0.376661 -0.399924 -0.415000
v -0.376661 0.400076 -0.415000
v -0.376661 -0.399924 0.415000
v -0.376661 0.400076 0.415000
v 0.383339 -0.399924 -0.415000
v 0.383339 0.400076 -0.415000
v 0.383339 -0.399924 0.415000
v 0.383339 0.400076 0.415000
vt 0.830450 0.887854
vt 0.802111 0.858452
vt 0.830450 0.858452
vt 0.371599 0.868144
vt 0.344677 0.896483
vt 0.344677 0.868144
vt 0.852755 0.189426
vt 0.824416 0.160025
vt 0.852755 0.160025
vt 0.560868 0.878897
vt 0.533946 0.907236
vt 0.533946 0.878897
vt 0.175736 0.890738
vt 0.148814 0.861336
vt 0.175736 0.861336
vt 0.733314 0.889719
vt 0.706392 0.860318
vt 0.733314 0.860318
vt 0.802111 0.887854
vt 0.371599 0.896483
vt 0.824416 0.189426
vt 0.560868 0.907236
vt 0.148814 0.890738
vt 0.706392 0.889719
vn -1.0000 0.0000 0.0000
vn 0.0000 0.0000 1.0000
vn 1.0000 0.0000 0.0000
vn 0.0000 0.0000 -1.0000
vn 0.0000 -1.0000 0.0000
vn 0.0000 1.0000 0.0000
usemtl マテリアル
s off
f 3/1/1 2/2/1 1/3/1
f 7/4/2 4/5/2 3/6/2
f 5/7/3 8/8/3 7/9/3
f 1/10/4 6/11/4 5/12/4
f 1/13/5 7/14/5 3/15/5
f 6/16/6 4/17/6 8/18/6
f 3/1/1 4/19/1 2/2/1
f 7/4/2 8/20/2 4/5/2
f 5/7/3 6/21/3 8/8/3
f 1/10/4 2/22/4 6/11/4
f 1/13/5 5/23/5 7/14/5
f 6/16/6 2/24/6 4/17/6
