# Blender v3.5.0 OBJ File: 'player.blend'
# www.blender.org
mtllib pLArm1.mtl
o 立方体.003
v 0.305418 -0.405513 -0.473669
v 0.305418 0.371315 -0.473669
v 0.305418 -0.405513 0.473669
v 0.305418 0.371315 0.473669
v 1.827051 -0.292060 -0.277618
v 1.827051 0.175345 -0.277618
v 1.827051 -0.292060 0.277618
v 1.827051 0.175345 0.277618
vt 0.829629 0.798156
vt 0.802111 0.764598
vt 0.829629 0.764598
vt 0.533946 0.603825
vt 0.554523 0.549478
vt 0.561464 0.603825
vt 0.961382 0.302088
vt 0.944825 0.282419
vt 0.961382 0.282419
vt 0.603974 0.220563
vt 0.583398 0.166216
vt 0.599955 0.166216
vt 0.421218 0.161291
vt 0.394604 0.215342
vt 0.387660 0.161291
vt 0.379792 0.282419
vt 0.353178 0.336766
vt 0.360123 0.282419
vt 0.802111 0.798156
vt 0.537965 0.549478
vt 0.944825 0.302088
vt 0.576456 0.220563
vt 0.414273 0.215342
vt 0.386737 0.336766
vn -1.0000 0.0000 0.0000
vn 0.1278 0.0000 0.9918
vn 1.0000 0.0000 0.0000
vn 0.1278 0.0000 -0.9918
vn 0.0744 -0.9972 0.0000
vn 0.1277 0.9918 0.0000
usemtl マテリアル.004
s off
f 3/1/1 2/2/1 1/3/1
f 3/4/2 8/5/2 4/6/2
f 5/7/3 8/8/3 7/9/3
f 1/10/4 6/11/4 5/12/4
f 1/13/5 7/14/5 3/15/5
f 6/16/6 4/17/6 8/18/6
f 3/1/1 4/19/1 2/2/1
f 3/4/2 7/20/2 8/5/2
f 5/7/3 6/21/3 8/8/3
f 1/10/4 2/22/4 6/11/4
f 1/13/5 5/23/5 7/14/5
f 6/16/6 2/24/6 4/17/6
