# Blender v3.5.0 OBJ File: ''
# www.blender.org
mtllib Y.mtl
o Cube
v -0.077590 -0.120566 0.200000
v -0.077590 -0.541092 0.200000
v -0.077590 -0.120566 -0.200000
v -0.077590 -0.541092 -0.200000
v -0.077590 -0.330829 0.200000
v -0.077590 -0.330829 -0.200000
v -0.077590 -0.447062 0.200000
v -0.077590 -0.447062 -0.200000
v 0.000000 -0.541092 0.200000
v 0.000000 -0.022913 -0.200000
v 0.000000 -0.541092 -0.200000
v 0.000000 -0.022913 0.200000
v 0.000000 -0.330829 0.200000
v 0.000000 -0.330829 -0.200000
v 0.000000 -0.447062 -0.200000
v 0.000000 -0.447062 0.200000
v -0.196990 -0.541092 0.200000
v -0.196990 -0.447062 0.200000
v -0.196990 -0.447062 -0.200000
v -0.196990 -0.541092 -0.200000
v -0.182216 0.055720 0.200000
v -0.104626 0.153373 0.200000
v -0.104626 0.153373 -0.200000
v -0.182216 0.055720 -0.200000
v -0.375004 0.374014 0.200000
v -0.272836 0.374014 0.200000
v -0.272836 0.374014 -0.200000
v -0.375004 0.374014 -0.200000
v -0.194931 0.307879 0.200000
v -0.272521 0.210226 0.200000
v -0.194931 0.307879 -0.200000
v -0.272521 0.210226 -0.200000
v -0.201006 0.374014 0.200000
v -0.201006 0.374014 -0.200000
v -0.316537 0.285534 -0.200000
v -0.316537 0.285534 0.200000
v -0.068499 0.374014 0.200000
v -0.068499 0.468044 0.200000
v -0.068499 0.468044 -0.200000
v -0.068499 0.374014 -0.200000
v -0.477173 0.374014 0.200000
v -0.477173 0.468044 0.200000
v -0.477173 0.468044 -0.200000
v -0.477173 0.374014 -0.200000
v -0.272836 0.468044 0.200000
v -0.272836 0.468044 -0.200000
v -0.375004 0.468044 0.200000
v -0.375004 0.468044 -0.200000
v -0.201006 0.468044 -0.200000
v -0.201006 0.468044 0.200000
v 0.077590 -0.120566 0.200000
v 0.077590 -0.541092 0.200000
v 0.077590 -0.120566 -0.200000
v 0.077590 -0.541092 -0.200000
v 0.077590 -0.330829 0.200000
v 0.077590 -0.330829 -0.200000
v 0.077590 -0.447062 0.200000
v 0.077590 -0.447062 -0.200000
v 0.196990 -0.541092 0.200000
v 0.196990 -0.447062 0.200000
v 0.196990 -0.447062 -0.200000
v 0.196990 -0.541092 -0.200000
v 0.182216 0.055720 0.200000
v 0.104626 0.153373 0.200000
v 0.104626 0.153373 -0.200000
v 0.182216 0.055720 -0.200000
v 0.375004 0.374014 0.200000
v 0.272836 0.374014 0.200000
v 0.272836 0.374014 -0.200000
v 0.375004 0.374014 -0.200000
v 0.194931 0.307879 0.200000
v 0.272521 0.210226 0.200000
v 0.194931 0.307879 -0.200000
v 0.272521 0.210226 -0.200000
v 0.201006 0.374014 0.200000
v 0.201006 0.374014 -0.200000
v 0.316537 0.285534 -0.200000
v 0.316537 0.285534 0.200000
v 0.068499 0.374014 0.200000
v 0.068499 0.468044 0.200000
v 0.068499 0.468044 -0.200000
v 0.068499 0.374014 -0.200000
v 0.477173 0.374014 0.200000
v 0.477173 0.468044 0.200000
v 0.477173 0.468044 -0.200000
v 0.477173 0.374014 -0.200000
v 0.272836 0.468044 0.200000
v 0.272836 0.468044 -0.200000
v 0.375004 0.468044 0.200000
v 0.375004 0.468044 -0.200000
v 0.201006 0.468044 -0.200000
v 0.201006 0.468044 0.200000
vt 0.927733 0.000000
vt 0.908336 0.500000
vt 0.908336 0.000000
vt 0.126524 0.500000
vt 0.179048 0.000000
vt 0.179048 0.500000
vt 0.535458 0.304849
vt 0.516061 0.357415
vt 0.516061 0.304849
vt 0.516061 0.275791
vt 0.535458 0.275791
vt 0.208083 0.000000
vt 0.208083 0.500000
vt 0.516061 0.252284
vt 0.535458 0.252284
vt 0.554856 0.023507
vt 0.535458 0.000000
vt 0.554856 0.000000
vt 0.554856 0.052566
vt 0.535458 0.023507
vt 0.554856 0.105131
vt 0.535458 0.052566
vt 0.338190 1.000000
vt 0.361678 0.500000
vt 0.361678 1.000000
vt 0.486211 0.275791
vt 0.227405 1.000000
vt 0.257255 0.500000
vt 0.257255 1.000000
vt 0.584706 0.000000
vt 0.957583 0.000000
vt 0.927733 0.500000
vt 0.041940 0.500000
vt 0.081440 0.000000
vt 0.081440 0.500000
vt 0.535458 0.381828
vt 0.489904 0.401487
vt 0.151290 1.000000
vt 0.194278 0.500000
vt 0.194278 1.000000
vt 0.581012 0.149203
vt 0.535458 0.129545
vt 0.126524 0.000000
vt 0.467249 0.481060
vt 0.456324 0.458940
vt 0.485207 0.481060
vt 0.614592 0.206656
vt 0.603667 0.228776
vt 0.585710 0.228776
vt 0.000000 0.500000
vt 0.022688 0.000000
vt 0.022688 0.500000
vt 0.603588 0.187829
vt 0.561615 0.173616
vt 0.113599 1.000000
vt 0.151290 0.500000
vt 0.509302 0.425900
vt 0.467328 0.440113
vt 0.041940 0.000000
vt 0.584191 0.212243
vt 0.097139 1.000000
vt 0.113599 0.500000
vt 0.486725 0.464526
vt 0.808004 0.500000
vt 0.825962 0.000000
vt 0.825962 0.500000
vt 0.585710 0.252284
vt 0.678240 0.500000
vt 0.654751 1.000000
vt 0.654751 0.500000
vt 0.678240 0.500000
vt 0.701728 1.000000
vt 0.678240 1.000000
vt 0.416165 0.504568
vt 0.441707 0.481060
vt 0.441707 0.504568
vt 0.756920 0.500000
vt 0.782462 0.000000
vt 0.782462 0.500000
vt 0.654751 0.228776
vt 0.629209 0.252284
vt 0.629209 0.228776
vt 0.338190 0.500000
vt 0.312648 1.000000
vt 0.312648 0.500000
vt 0.467249 0.504568
vt 0.485207 0.504568
vt 0.603667 0.252284
vt 0.808004 0.000000
vt 0.518333 0.481060
vt 0.518333 0.504568
vt 0.552583 0.252284
vt 0.552583 0.228776
vt 0.990710 0.000000
vt 0.957583 0.500000
vt 0.957584 0.000000
vt 0.859088 0.000000
vt 0.859088 0.500000
vt 0.888938 0.000000
vt 0.387130 0.500000
vt 0.334607 0.000000
vt 0.387130 0.000000
vt 0.554856 0.357415
vt 0.554856 0.275791
vt 0.416165 0.500000
vt 0.416165 0.000000
vt 0.554856 0.252284
vt 0.516061 0.023507
vt 0.516061 0.000000
vt 0.516061 0.052566
vt 0.516061 0.105131
vt 0.408656 1.000000
vt 0.385167 0.500000
vt 0.408656 0.500000
vt 0.584706 0.275791
vt 0.257255 0.500000
vt 0.287106 1.000000
vt 0.257255 1.000000
vt 0.486211 0.000000
vt 0.888938 0.500000
vt 0.859088 0.000000
vt 0.289523 0.500000
vt 0.250023 0.000000
vt 0.289523 0.000000
vt 0.581012 0.401487
vt 0.561615 0.425900
vt 0.097139 1.000000
vt 0.054151 0.500000
vt 0.097139 0.500000
vt 0.489904 0.149203
vt 0.334607 0.500000
vt 0.614592 0.458940
vt 0.603667 0.481060
vt 0.585710 0.481060
vt 0.456324 0.206656
vt 0.467249 0.228776
vt 0.441707 0.228776
vt 0.230770 0.500000
vt 0.208083 0.000000
vt 0.230770 0.000000
vt 0.509302 0.173616
vt 0.467328 0.187829
vt 0.054151 1.000000
vt 0.016460 0.500000
vt 0.603588 0.440113
vt 0.584191 0.464526
vt 0.250023 0.500000
vt 0.486725 0.212243
vt 0.016460 1.000000
vt 0.000000 0.500000
vt 0.687878 0.000000
vt 0.705836 0.500000
vt 0.687878 0.500000
vt 0.485207 0.252284
vt 0.485207 0.228776
vt 0.361678 0.500000
vt 0.385167 1.000000
vt 0.361678 1.000000
vt 0.725217 0.500000
vt 0.701728 1.000000
vt 0.701728 0.500000
vt 0.629209 0.481060
vt 0.654751 0.504568
vt 0.629209 0.504568
vt 0.731378 0.000000
vt 0.756920 0.500000
vt 0.731378 0.500000
vt 0.441707 0.252284
vt 0.416165 0.228776
vt 0.312648 1.000000
vt 0.287106 0.500000
vt 0.312648 0.500000
vt 0.603667 0.504568
vt 0.585710 0.504568
vt 0.467249 0.252284
vt 0.705836 0.000000
vt 0.552583 0.481060
vt 0.552583 0.504568
vt 0.518333 0.252284
vt 0.518333 0.228776
vt 0.227405 1.000000
vt 0.194278 0.500000
vt 0.227405 0.500000
vt 0.654751 0.000000
vt 0.654751 0.500000
vt 0.338190 0.500000
vt 0.486211 0.252284
vt 0.227405 0.500000
vt 0.584706 0.023507
vt 0.957583 0.500000
vt 0.000000 0.000000
vt 0.097139 0.500000
vt 0.678240 1.000000
vt 0.701728 0.500000
vt 0.416165 0.481060
vt 0.756920 0.000000
vt 0.654751 0.252284
vt 0.338190 1.000000
vt 0.990710 0.500000
vt 0.554856 0.304849
vt 0.385167 1.000000
vt 0.584706 0.252284
vt 0.287106 0.500000
vt 0.486211 0.023507
vt 0.859088 0.500000
vt 0.208083 0.500000
vt 0.000000 1.000000
vt 0.385167 0.500000
vt 0.725217 1.000000
vt 0.654751 0.481060
vt 0.756920 0.000000
vt 0.416165 0.252284
vt 0.287106 1.000000
vt 0.194278 1.000000
vn 0.0000 -1.0000 0.0000
vn -1.0000 0.0000 0.0000
vn 0.0000 0.0000 1.0000
vn 0.0000 0.0000 -1.0000
vn 0.0000 1.0000 0.0000
vn -0.8633 -0.5046 0.0000
vn 0.8599 0.5104 0.0000
vn -0.8599 -0.5104 0.0000
vn -0.8343 -0.5513 0.0000
vn 0.8633 0.5046 0.0000
vn 0.9958 0.0915 0.0000
vn 1.0000 0.0000 0.0000
vn 0.8633 -0.5046 0.0000
vn -0.8599 0.5104 0.0000
vn 0.8599 -0.5104 0.0000
vn 0.8343 -0.5513 0.0000
vn -0.8633 0.5046 0.0000
vn -0.9958 0.0915 0.0000
usemtl Material
s off
f 2/1/1 11/2/1 9/3/1
f 1/4/2 6/5/2 5/6/2
f 13/7/3 1/8/3 5/9/3
f 13/7/3 7/10/3 16/11/3
f 5/6/2 8/12/2 7/13/2
f 16/11/3 2/14/3 9/15/3
f 8/16/4 11/17/4 4/18/4
f 6/19/4 15/20/4 8/16/4
f 3/21/4 14/22/4 6/19/4
f 42/23/2 44/24/2 41/25/2
f 18/26/3 2/14/3 7/10/3
f 19/27/5 7/28/5 8/29/5
f 20/30/4 8/16/4 4/18/4
f 17/31/1 4/32/1 2/1/1
f 30/33/6 24/34/6 21/35/6
f 12/36/3 21/37/3 1/8/3
f 23/38/7 12/39/7 10/40/7
f 24/41/4 10/42/4 3/21/4
f 21/35/8 3/43/8 1/4/8
f 26/44/3 36/45/3 33/46/3
f 35/47/4 27/48/4 34/49/4
f 25/50/9 35/51/9 36/52/9
f 32/53/4 23/54/4 24/41/4
f 31/55/10 22/56/10 23/38/10
f 22/57/3 30/58/3 21/37/3
f 36/52/6 32/59/6 30/33/6
f 35/47/4 31/60/4 32/53/4
f 34/61/11 29/62/11 31/55/11
f 29/63/3 36/45/3 30/58/3
f 46/64/5 50/65/5 49/66/5
f 27/48/4 49/67/4 34/49/4
f 37/68/12 39/69/12 38/70/12
f 19/71/2 17/72/2 18/73/2
f 42/74/3 25/75/3 47/76/3
f 43/77/5 47/78/5 48/79/5
f 44/80/4 48/81/4 28/82/4
f 41/83/1 28/84/1 25/85/1
f 45/86/3 33/46/3 50/87/3
f 28/82/4 46/88/4 27/48/4
f 48/79/5 45/89/5 46/64/5
f 47/76/3 26/44/3 45/86/3
f 50/87/3 37/90/3 38/91/3
f 34/49/4 39/92/4 40/93/4
f 33/94/1 40/95/1 37/96/1
f 49/66/5 38/97/5 39/98/5
f 11/2/1 52/99/1 9/3/1
f 56/100/12 51/101/12 55/102/12
f 13/7/3 51/103/3 12/36/3
f 57/104/3 13/7/3 16/11/3
f 58/105/12 55/102/12 57/106/12
f 52/107/3 16/11/3 9/15/3
f 11/17/4 58/108/4 54/109/4
f 15/20/4 56/110/4 58/108/4
f 14/22/4 53/111/4 56/110/4
f 86/112/12 84/113/12 83/114/12
f 52/107/3 60/115/3 57/104/3
f 57/116/5 61/117/5 58/118/5
f 58/108/4 62/119/4 54/109/4
f 54/120/1 59/121/1 52/99/1
f 66/122/13 72/123/13 63/124/13
f 12/36/3 63/125/3 64/126/3
f 12/127/14 65/128/14 10/129/14
f 10/42/4 66/130/4 53/111/4
f 53/131/15 63/124/15 51/101/15
f 78/132/3 68/133/3 75/134/3
f 77/135/4 69/136/4 70/137/4
f 77/138/16 67/139/16 78/140/16
f 65/141/4 74/142/4 66/130/4
f 64/143/17 73/144/17 65/128/17
f 64/126/3 72/145/3 71/146/3
f 74/147/13 78/140/13 72/123/13
f 73/148/4 77/135/4 74/142/4
f 71/149/18 76/150/18 73/144/18
f 71/146/3 78/132/3 75/134/3
f 92/151/5 88/152/5 91/153/5
f 91/154/4 69/136/4 76/155/4
f 81/156/2 79/157/2 80/158/2
f 59/159/12 61/160/12 60/161/12
f 67/162/3 84/163/3 89/164/3
f 89/165/5 85/166/5 90/167/5
f 90/168/4 86/169/4 70/137/4
f 70/170/1 83/171/1 67/172/1
f 75/134/3 87/173/3 92/174/3
f 88/175/4 70/137/4 69/136/4
f 87/176/5 90/167/5 88/152/5
f 68/133/3 89/164/3 87/173/3
f 79/177/3 92/174/3 80/178/3
f 81/179/4 76/155/4 82/180/4
f 82/181/1 75/182/1 79/183/1
f 80/184/5 91/153/5 81/185/5
f 2/1/1 4/32/1 11/2/1
f 1/4/2 3/43/2 6/5/2
f 13/7/3 12/36/3 1/8/3
f 13/7/3 5/9/3 7/10/3
f 5/6/2 6/5/2 8/12/2
f 16/11/3 7/10/3 2/14/3
f 8/16/4 15/20/4 11/17/4
f 6/19/4 14/22/4 15/20/4
f 3/21/4 10/42/4 14/22/4
f 42/23/2 43/186/2 44/24/2
f 18/26/3 17/187/3 2/14/3
f 19/27/5 18/188/5 7/28/5
f 20/30/4 19/189/4 8/16/4
f 17/31/1 20/190/1 4/32/1
f 30/33/6 32/59/6 24/34/6
f 12/36/3 22/57/3 21/37/3
f 23/38/7 22/56/7 12/39/7
f 24/41/4 23/54/4 10/42/4
f 21/35/8 24/34/8 3/43/8
f 26/44/3 25/75/3 36/45/3
f 35/47/4 28/82/4 27/48/4
f 25/50/9 28/191/9 35/51/9
f 32/53/4 31/60/4 23/54/4
f 31/55/10 29/62/10 22/56/10
f 22/57/3 29/63/3 30/58/3
f 36/52/6 35/51/6 32/59/6
f 35/47/4 34/49/4 31/60/4
f 34/61/11 33/192/11 29/62/11
f 29/63/3 33/46/3 36/45/3
f 46/64/5 45/89/5 50/65/5
f 27/48/4 46/88/4 49/67/4
f 37/68/12 40/193/12 39/69/12
f 19/71/2 20/194/2 17/72/2
f 42/74/3 41/195/3 25/75/3
f 43/77/5 42/196/5 47/78/5
f 44/80/4 43/197/4 48/81/4
f 41/83/1 44/198/1 28/84/1
f 45/86/3 26/44/3 33/46/3
f 28/82/4 48/81/4 46/88/4
f 48/79/5 47/78/5 45/89/5
f 47/76/3 25/75/3 26/44/3
f 50/87/3 33/46/3 37/90/3
f 34/49/4 49/67/4 39/92/4
f 33/94/1 34/199/1 40/95/1
f 49/66/5 50/65/5 38/97/5
f 11/2/1 54/120/1 52/99/1
f 56/100/12 53/131/12 51/101/12
f 13/7/3 55/200/3 51/103/3
f 57/104/3 55/200/3 13/7/3
f 58/105/12 56/100/12 55/102/12
f 52/107/3 57/104/3 16/11/3
f 11/17/4 15/20/4 58/108/4
f 15/20/4 14/22/4 56/110/4
f 14/22/4 10/42/4 53/111/4
f 86/112/12 85/201/12 84/113/12
f 52/107/3 59/202/3 60/115/3
f 57/116/5 60/203/5 61/117/5
f 58/108/4 61/204/4 62/119/4
f 54/120/1 62/205/1 59/121/1
f 66/122/13 74/147/13 72/123/13
f 12/36/3 51/103/3 63/125/3
f 12/127/14 64/143/14 65/128/14
f 10/42/4 65/141/4 66/130/4
f 53/131/15 66/122/15 63/124/15
f 78/132/3 67/162/3 68/133/3
f 77/135/4 76/155/4 69/136/4
f 77/138/16 70/206/16 67/139/16
f 65/141/4 73/148/4 74/142/4
f 64/143/17 71/149/17 73/144/17
f 64/126/3 63/125/3 72/145/3
f 74/147/13 77/138/13 78/140/13
f 73/148/4 76/155/4 77/135/4
f 71/149/18 75/207/18 76/150/18
f 71/146/3 72/145/3 78/132/3
f 92/151/5 87/176/5 88/152/5
f 91/154/4 88/175/4 69/136/4
f 81/156/2 82/208/2 79/157/2
f 59/159/12 62/209/12 61/160/12
f 67/162/3 83/210/3 84/163/3
f 89/165/5 84/211/5 85/166/5
f 90/168/4 85/212/4 86/169/4
f 70/170/1 86/213/1 83/171/1
f 75/134/3 68/133/3 87/173/3
f 88/175/4 90/168/4 70/137/4
f 87/176/5 89/165/5 90/167/5
f 68/133/3 67/162/3 89/164/3
f 79/177/3 75/134/3 92/174/3
f 81/179/4 91/154/4 76/155/4
f 82/181/1 76/214/1 75/182/1
f 80/184/5 92/151/5 91/153/5
