# Blender v3.5.0 OBJ File: ''
# www.blender.org
mtllib B.mtl
o Cube
v 0.074533 0.470281 0.200000
v 0.074533 -0.547993 0.200000
v 0.074533 0.470281 -0.200000
v 0.074533 -0.547993 -0.200000
v 0.273319 0.470281 0.200000
v 0.273319 -0.547993 0.200000
v 0.273319 0.470281 -0.200000
v 0.273319 -0.547993 -0.200000
v 0.074533 -0.080727 0.200000
v 0.273319 -0.072161 -0.200000
v 0.074533 -0.080727 -0.200000
v 0.273319 -0.072161 0.200000
v 0.074533 -0.448847 0.200000
v 0.074533 -0.448847 -0.200000
v 0.273319 -0.448847 0.200000
v 0.273319 -0.448847 -0.200000
v 0.273319 0.393339 -0.200000
v 0.074533 0.393339 0.200000
v 0.074533 0.393339 -0.200000
v 0.273319 0.393339 0.200000
v 0.074533 0.047722 0.200000
v 0.074533 0.047722 -0.200000
v 0.273319 0.047722 0.200000
v 0.273319 0.047723 -0.200000
v 0.273319 -0.166140 -0.200000
v 0.074533 -0.166140 0.200000
v 0.074533 -0.166140 -0.200000
v 0.273319 -0.166140 0.200000
v 0.409499 0.393339 -0.200000
v 0.409499 0.470281 -0.200000
v 0.409499 0.470281 0.200000
v 0.409499 0.393339 0.200000
v -0.043885 0.393339 0.200000
v -0.043885 0.470281 0.200000
v -0.043885 0.470281 -0.200000
v -0.043885 0.393339 -0.200000
v 0.409499 -0.547993 -0.200000
v 0.409499 -0.448847 -0.200000
v 0.409499 -0.448847 0.200000
v 0.409499 -0.547993 0.200000
v -0.043885 -0.547993 0.200000
v -0.043885 -0.448847 0.200000
v -0.043885 -0.448847 -0.200000
v -0.043885 -0.547993 -0.200000
v -0.067322 -0.080727 0.200000
v -0.067322 0.047722 0.200000
v -0.067322 0.047722 -0.200000
v -0.067322 -0.080727 -0.200000
v -0.197393 0.393339 0.200000
v -0.182591 0.470281 0.200000
v -0.182591 0.470281 -0.200000
v -0.197393 0.393339 -0.200000
v -0.149576 -0.547993 0.200000
v -0.234372 -0.443493 0.200000
v -0.234372 -0.443493 -0.200000
v -0.149576 -0.547993 -0.200000
v -0.174226 -0.080727 0.200000
v -0.174226 0.047722 0.200000
v -0.174226 0.047722 -0.200000
v -0.174226 -0.080727 -0.200000
v -0.315832 0.470281 0.200000
v -0.405892 0.393339 0.200000
v -0.315832 0.470281 -0.200000
v -0.405892 0.393339 -0.200000
v -0.458241 -0.448847 0.200000
v -0.351165 -0.547993 0.200000
v -0.458241 -0.448847 -0.200000
v -0.351165 -0.547993 -0.200000
v -0.390092 0.004035 0.200000
v -0.390092 -0.028474 0.200000
v -0.390092 0.004035 -0.200000
v -0.390092 -0.028474 -0.200000
v -0.243612 0.103045 0.200000
v -0.243612 0.103045 -0.200000
v -0.474896 0.103045 0.200000
v -0.474896 0.103045 -0.200000
v -0.491446 0.248192 0.200000
v -0.262905 0.320766 -0.200000
v -0.275580 0.248192 0.200000
v -0.262905 0.320766 0.200000
v -0.246182 -0.128697 0.200000
v -0.246182 -0.128697 -0.200000
v -0.505734 -0.128697 0.200000
v -0.505734 -0.128697 -0.200000
v -0.275580 0.248192 -0.200000
v -0.467669 0.320766 -0.200000
v -0.491446 0.248192 -0.200000
v -0.467669 0.320766 0.200000
v -0.271160 0.175619 -0.200000
v -0.271160 0.175619 0.200000
v -0.487026 0.175619 0.200000
v -0.487026 0.175619 -0.200000
v -0.534205 -0.288772 0.200000
v -0.318339 -0.288772 0.200000
v -0.534205 -0.288772 -0.200000
v -0.318339 -0.288772 -0.200000
v -0.313491 -0.208734 0.200000
v -0.529356 -0.208734 -0.200000
v -0.529356 -0.208734 0.200000
v -0.313491 -0.208734 -0.200000
v -0.515853 -0.368810 0.200000
v -0.296419 -0.368810 -0.200000
v -0.296419 -0.368810 0.200000
v -0.515853 -0.368810 -0.200000
vt 0.574488 0.000000
vt 0.526670 0.481104
vt 0.526670 0.000000
vt 0.307587 0.707543
vt 0.259768 0.726052
vt 0.259768 0.707543
vt 0.080577 0.000000
vt 0.032758 0.481104
vt 0.032758 0.000000
vt 0.194251 0.726052
vt 0.146433 0.707543
vt 0.194251 0.707543
vt 0.194251 0.572959
vt 0.146433 0.593506
vt 0.146433 0.572959
vt 0.708613 0.481104
vt 0.729155 0.000000
vt 0.729155 0.481104
vt 0.320619 0.481104
vt 0.343207 0.000000
vt 0.343207 0.481104
vt 0.307587 0.593506
vt 0.259768 0.572959
vt 0.307587 0.572959
vt 0.307587 0.504953
vt 0.259768 0.481104
vt 0.307587 0.481104
vt 0.194251 0.504953
vt 0.146433 0.481104
vt 0.194251 0.481104
vt 0.146433 0.624404
vt 0.194251 0.624404
vt 0.797146 0.481104
vt 0.880266 0.000000
vt 0.880266 0.481104
vt 0.208736 0.481104
vt 0.291805 0.000000
vt 0.291805 0.481104
vt 0.259768 0.624404
vt 0.307587 0.624404
vt 0.259768 0.595566
vt 0.320619 0.000000
vt 0.134487 0.000000
vt 0.182979 0.481104
vt 0.134487 0.481104
vt 0.194251 0.595566
vt 0.259768 0.504953
vt 0.411155 0.000000
vt 0.411155 0.481104
vt 0.797146 0.000000
vt 0.797146 0.481104
vt 0.146433 0.504953
vt 0.981507 0.962208
vt 1.000000 0.481104
vt 1.000000 0.962208
vt 0.227010 0.726052
vt 0.607246 0.000000
vt 0.574488 0.481104
vt 0.227010 0.707543
vt 0.892161 0.962208
vt 0.924919 0.481104
vt 0.924919 0.962208
vt 0.700794 0.481104
vt 0.708613 0.000000
vt 0.708613 0.481104
vt 0.117947 0.726052
vt 0.146433 0.726052
vt 0.498184 0.481104
vt 0.336072 0.707543
vt 0.307587 0.726052
vt 0.855234 0.481104
vt 0.826748 0.962208
vt 0.826748 0.481104
vt 0.981507 0.481104
vt 0.957678 0.962208
vt 0.957678 0.481104
vt 0.227010 0.504953
vt 0.924919 0.962208
vt 0.957678 0.481104
vt 0.957678 0.962208
vt 0.227010 0.481104
vt 0.000000 0.481104
vt 0.208736 0.000000
vt 0.182979 0.000000
vt 0.117947 0.504953
vt 0.711608 0.481104
vt 0.683122 0.962208
vt 0.683122 0.481104
vt 0.336072 0.481104
vt 0.109062 0.000000
vt 0.080577 0.481104
vt 0.432767 0.000000
vt 0.411155 0.481104
vt 0.411155 0.000000
vt 0.112310 0.624404
vt 0.564901 0.481104
vt 0.530777 0.962208
vt 0.530777 0.481104
vt 0.341710 0.593506
vt 0.914390 0.000000
vt 0.880266 0.481104
vt 0.880266 0.000000
vt 0.084581 0.726052
vt 0.117947 0.707543
vt 0.464818 0.481104
vt 0.498184 0.000000
vt 0.369438 0.726052
vt 0.336072 0.726052
vt 0.892161 0.481104
vt 0.855234 0.962208
vt 0.081021 0.707543
vt 0.052530 0.726052
vt 0.030866 0.707543
vt 0.092523 0.481104
vt 0.117947 0.481104
vt 0.757433 0.481104
vt 0.711608 0.962208
vt 0.361496 0.481104
vt 0.336072 0.504953
vt 0.109062 0.481104
vt 0.034667 0.613895
vt 0.069903 0.637712
vt 0.014267 0.637712
vt 0.086593 0.624404
vt 0.112310 0.593506
vt 0.590617 0.481104
vt 0.564901 0.962208
vt 0.367426 0.593506
vt 0.341710 0.624404
vt 0.940106 0.000000
vt 0.914390 0.481104
vt 0.367426 0.624404
vt 0.419353 0.606075
vt 0.419353 0.613895
vt 0.464818 0.000000
vt 0.072125 0.506241
vt 0.044031 0.481104
vt 0.034667 0.606075
vt 0.069284 0.581966
vt 0.086593 0.593506
vt 0.372999 0.707543
vt 0.401489 0.726052
vt 0.400926 0.562713
vt 0.447171 0.581966
vt 0.384735 0.581966
vt 0.390744 0.655170
vt 0.439753 0.637712
vt 0.442670 0.655170
vt 0.381894 0.506241
vt 0.409989 0.481104
vt 0.435746 0.504953
vt 0.016005 0.690085
vt 0.062213 0.672628
vt 0.065262 0.690085
vt 0.660015 0.000000
vt 0.677408 0.481104
vt 0.660015 0.481104
vt 0.809033 0.481104
vt 0.826748 0.962208
vt 0.809033 0.962208
vt 0.063276 0.655170
vt 0.774229 0.481104
vt 0.791547 0.962208
vt 0.774229 0.962208
vt 0.677408 0.000000
vt 0.700794 0.000000
vt 0.384117 0.637712
vt 0.607345 0.962208
vt 0.590617 0.962208
vt 0.438014 0.690085
vt 0.391807 0.672628
vt 0.443734 0.672628
vt 0.957415 0.481104
vt 0.940106 0.481104
vt 0.957415 0.000000
vt 0.985165 0.481104
vt 0.957415 0.481104
vt 0.625010 0.000000
vt 0.642583 0.481104
vt 0.625010 0.481104
vt 0.053093 0.562713
vt 0.006849 0.581966
vt 0.001166 0.562713
vt 0.625917 0.962208
vt 0.607345 0.481104
vt 0.625917 0.481104
vt 0.473387 0.962208
vt 0.454019 0.481104
vt 0.473387 0.481104
vt 0.607246 0.000000
vt 0.607246 0.481104
vt 0.423154 0.707543
vt 0.388758 0.690085
vt 0.757433 0.481104
vt 0.757433 0.962208
vt 0.011349 0.655170
vt 0.791547 0.481104
vt 0.642583 0.000000
vt 0.511817 0.962208
vt 0.492660 0.481104
vt 0.511817 0.481104
vt 0.664559 0.962208
vt 0.645106 0.481104
vt 0.664559 0.481104
vt 0.004414 0.524207
vt 0.051927 0.543460
vt 0.000000 0.543460
vt 0.449605 0.524207
vt 0.402093 0.543460
vt 0.396820 0.524207
vt 0.492660 0.962208
vt 0.645106 0.962208
vt 0.452853 0.562713
vt 0.018273 0.504953
vt 0.057200 0.524207
vt 0.683122 0.962208
vt 0.683122 0.481104
vt 0.530777 0.962208
vt 0.530777 0.481104
vt 0.708613 0.000000
vt 0.797146 0.000000
vt 0.208736 0.000000
vt 0.981507 0.481104
vt 0.227010 0.707543
vt 0.607246 0.481104
vt 0.227010 0.726052
vt 0.892161 0.481104
vt 0.981507 0.962208
vt 0.227010 0.481104
vt 0.924919 0.481104
vt 0.227010 0.504953
vt 0.000000 0.000000
vt 0.208736 0.481104
vt 0.432767 0.481104
vt 0.892161 0.962208
vt 0.757433 0.962208
vt 0.010286 0.672628
vt 0.826748 0.481104
vt 0.607345 0.481104
vt 0.957415 0.000000
vt 0.985165 0.000000
vt 0.607345 0.962208
vt 0.454019 0.962208
vt 0.454019 0.543460
vn 0.0000 1.0000 0.0000
vn 0.0000 0.0000 -1.0000
vn 0.0000 -1.0000 0.0000
vn 0.0000 0.0000 1.0000
vn -1.0000 0.0000 0.0000
vn 1.0000 0.0000 0.0000
vn -0.6794 -0.7338 0.0000
vn -0.6496 0.7603 0.0000
vn 0.0281 0.9996 0.0000
vn -0.9863 -0.1648 0.0000
vn 0.9349 0.3549 0.0000
vn 0.9851 -0.1720 0.0000
vn -0.7595 -0.6505 0.0000
vn 0.6234 0.7819 0.0000
vn 0.5547 -0.8321 0.0000
vn -0.6549 0.7557 0.0000
vn -0.9503 0.3113 0.0000
vn 0.7653 -0.6436 0.0000
vn -0.9591 0.2831 0.0000
vn -0.7615 0.6482 0.0000
vn 0.7423 -0.6701 0.0000
vn 0.9982 0.0608 0.0000
vn -0.9982 -0.0608 0.0000
vn -0.9747 -0.2235 0.0000
vn 0.9645 0.2642 0.0000
vn -0.9982 0.0605 0.0000
vn 0.9982 -0.0605 0.0000
vn 0.7692 0.6390 0.0000
vn -0.8116 -0.5842 0.0000
usemtl Material
s off
f 5/1/1 3/2/1 1/3/1
f 19/4/2 7/5/2 17/6/2
f 2/7/3 8/8/3 6/9/3
f 5/10/4 18/11/4 20/12/4
f 28/13/4 9/14/4 26/15/4
f 9/16/5 27/17/5 26/18/5
f 10/19/6 28/20/6 25/21/6
f 11/22/2 25/23/2 27/24/2
f 14/25/2 8/26/2 4/27/2
f 15/28/4 2/29/4 6/30/4
f 20/12/4 21/31/4 23/32/4
f 18/33/5 22/34/5 21/35/5
f 17/36/6 23/37/6 24/38/6
f 19/4/2 24/39/2 22/40/2
f 22/40/2 10/41/2 11/22/2
f 24/38/6 12/42/6 10/19/6
f 53/43/3 68/44/3 56/45/3
f 12/46/4 21/31/4 9/14/4
f 27/24/2 16/47/2 14/25/2
f 25/21/6 15/48/6 16/49/6
f 26/18/5 14/50/5 13/51/5
f 28/13/4 13/52/4 15/28/4
f 30/53/6 32/54/6 29/55/6
f 30/56/2 17/6/2 7/5/2
f 31/57/1 7/58/1 5/1/1
f 32/59/4 5/10/4 20/12/4
f 29/60/3 20/61/3 17/62/3
f 69/63/5 72/64/5 70/65/5
f 34/66/4 18/11/4 1/67/4
f 35/68/1 1/3/1 3/2/1
f 36/69/2 3/70/2 19/4/2
f 33/71/3 19/72/3 18/73/3
f 38/74/6 40/75/6 37/76/6
f 38/77/2 8/26/2 16/47/2
f 39/78/1 16/79/1 15/80/1
f 40/81/4 15/28/4 6/30/4
f 37/82/3 6/9/3 8/8/3
f 65/83/7 68/44/7 66/84/7
f 42/85/4 2/29/4 13/52/4
f 43/86/1 13/87/1 14/88/1
f 44/89/2 14/25/2 4/27/2
f 41/90/3 4/91/3 2/7/3
f 61/92/8 64/93/8 62/94/8
f 46/95/4 9/14/4 21/31/4
f 47/96/1 21/97/1 22/98/1
f 48/99/2 22/40/2 11/22/2
f 45/100/3 11/101/3 9/102/3
f 50/103/4 33/104/4 34/66/4
f 51/105/1 34/106/1 35/68/1
f 36/69/2 51/107/2 35/108/2
f 49/109/3 36/110/3 33/71/3
f 49/111/4 61/112/4 62/113/4
f 42/85/4 53/114/4 41/115/4
f 55/116/9 42/117/9 43/86/9
f 56/118/2 43/119/2 44/89/2
f 53/43/3 44/120/3 41/90/3
f 69/121/4 73/122/4 75/123/4
f 58/124/4 45/125/4 46/95/4
f 59/126/1 46/127/1 47/96/1
f 60/128/2 47/129/2 48/99/2
f 57/130/3 48/131/3 45/100/3
f 59/132/2 72/133/2 71/134/2
f 51/105/1 61/92/1 50/135/1
f 54/136/4 66/137/4 53/114/4
f 70/138/4 81/139/4 57/140/4
f 52/141/2 63/142/2 51/107/2
f 100/143/2 84/144/2 82/145/2
f 58/124/4 70/138/4 57/140/4
f 89/146/2 76/147/2 92/148/2
f 55/149/2 68/150/2 67/151/2
f 88/152/4 79/153/4 80/154/4
f 92/155/10 75/156/10 91/157/10
f 90/158/11 74/159/11 89/160/11
f 90/161/4 75/123/4 73/122/4
f 80/162/12 85/163/12 78/164/12
f 69/63/13 76/165/13 71/166/13
f 71/134/2 74/167/2 59/132/2
f 59/126/14 73/168/14 58/169/14
f 86/170/2 85/171/2 87/172/2
f 57/130/15 82/173/15 60/174/15
f 72/175/16 83/176/16 70/177/16
f 72/133/2 82/145/2 84/144/2
f 86/178/17 77/179/17 88/180/17
f 97/181/4 83/182/4 99/183/4
f 100/184/18 81/185/18 97/186/18
f 99/187/19 84/188/19 98/189/19
f 64/190/20 88/180/20 62/191/20
f 64/192/2 78/193/2 86/170/2
f 49/194/21 78/164/21 52/195/21
f 62/113/4 80/154/4 49/111/4
f 79/153/4 91/196/4 90/161/4
f 79/197/22 89/160/22 85/163/22
f 87/198/23 91/157/23 77/179/23
f 85/171/2 92/148/2 87/172/2
f 101/199/24 95/200/24 104/201/24
f 102/202/25 94/203/25 103/204/25
f 101/205/4 94/206/4 93/207/4
f 104/208/2 96/209/2 102/210/2
f 93/211/26 98/189/26 95/200/26
f 96/212/27 97/186/27 94/203/27
f 94/206/4 99/183/4 93/207/4
f 96/209/2 98/213/2 100/143/2
f 67/151/2 102/210/2 55/149/2
f 65/214/4 103/215/4 101/205/4
f 55/216/28 103/204/28 54/217/28
f 65/218/29 104/201/29 67/219/29
f 5/1/1 7/58/1 3/2/1
f 19/4/2 3/70/2 7/5/2
f 2/7/3 4/91/3 8/8/3
f 5/10/4 1/67/4 18/11/4
f 28/13/4 12/46/4 9/14/4
f 9/16/5 11/220/5 27/17/5
f 10/19/6 12/42/6 28/20/6
f 11/22/2 10/41/2 25/23/2
f 14/25/2 16/47/2 8/26/2
f 15/28/4 13/52/4 2/29/4
f 20/12/4 18/11/4 21/31/4
f 18/33/5 19/221/5 22/34/5
f 17/36/6 20/222/6 23/37/6
f 19/4/2 17/6/2 24/39/2
f 22/40/2 24/39/2 10/41/2
f 24/38/6 23/37/6 12/42/6
f 53/43/3 66/84/3 68/44/3
f 12/46/4 23/32/4 21/31/4
f 27/24/2 25/23/2 16/47/2
f 25/21/6 28/20/6 15/48/6
f 26/18/5 27/17/5 14/50/5
f 28/13/4 26/15/4 13/52/4
f 30/53/6 31/223/6 32/54/6
f 30/56/2 29/224/2 17/6/2
f 31/57/1 30/225/1 7/58/1
f 32/59/4 31/226/4 5/10/4
f 29/60/3 32/227/3 20/61/3
f 69/63/5 71/166/5 72/64/5
f 34/66/4 33/104/4 18/11/4
f 35/68/1 34/106/1 1/3/1
f 36/69/2 35/108/2 3/70/2
f 33/71/3 36/110/3 19/72/3
f 38/74/6 39/228/6 40/75/6
f 38/77/2 37/229/2 8/26/2
f 39/78/1 38/230/1 16/79/1
f 40/81/4 39/231/4 15/28/4
f 37/82/3 40/232/3 6/9/3
f 65/83/7 67/233/7 68/44/7
f 42/85/4 41/115/4 2/29/4
f 43/86/1 42/117/1 13/87/1
f 44/89/2 43/119/2 14/25/2
f 41/90/3 44/120/3 4/91/3
f 61/92/8 63/234/8 64/93/8
f 46/95/4 45/125/4 9/14/4
f 47/96/1 46/127/1 21/97/1
f 48/99/2 47/129/2 22/40/2
f 45/100/3 48/131/3 11/101/3
f 50/103/4 49/111/4 33/104/4
f 51/105/1 50/135/1 34/106/1
f 36/69/2 52/141/2 51/107/2
f 49/109/3 52/235/3 36/110/3
f 49/111/4 50/103/4 61/112/4
f 42/85/4 54/136/4 53/114/4
f 55/116/9 54/236/9 42/117/9
f 56/118/2 55/149/2 43/119/2
f 53/43/3 56/45/3 44/120/3
f 69/121/4 58/124/4 73/122/4
f 58/124/4 57/140/4 45/125/4
f 59/126/1 58/169/1 46/127/1
f 60/128/2 59/132/2 47/129/2
f 57/130/3 60/174/3 48/131/3
f 59/132/2 60/128/2 72/133/2
f 51/105/1 63/234/1 61/92/1
f 54/136/4 65/214/4 66/137/4
f 70/138/4 83/182/4 81/139/4
f 52/141/2 64/192/2 63/142/2
f 100/143/2 98/213/2 84/144/2
f 58/124/4 69/121/4 70/138/4
f 89/146/2 74/167/2 76/147/2
f 55/149/2 56/118/2 68/150/2
f 88/152/4 77/237/4 79/153/4
f 92/155/10 76/165/10 75/156/10
f 90/158/11 73/238/11 74/159/11
f 90/161/4 91/196/4 75/123/4
f 80/162/12 79/197/12 85/163/12
f 69/63/13 75/156/13 76/165/13
f 71/134/2 76/147/2 74/167/2
f 59/126/14 74/239/14 73/168/14
f 86/170/2 78/193/2 85/171/2
f 57/130/15 81/240/15 82/173/15
f 72/175/16 84/241/16 83/176/16
f 72/133/2 60/128/2 82/145/2
f 86/178/17 87/198/17 77/179/17
f 97/181/4 81/139/4 83/182/4
f 100/184/18 82/242/18 81/185/18
f 99/187/19 83/243/19 84/188/19
f 64/190/20 86/178/20 88/180/20
f 64/192/2 52/141/2 78/193/2
f 49/194/21 80/162/21 78/164/21
f 62/113/4 88/152/4 80/154/4
f 79/153/4 77/237/4 91/196/4
f 79/197/22 90/158/22 89/160/22
f 87/198/23 92/155/23 91/157/23
f 85/171/2 89/146/2 92/148/2
f 101/199/24 93/211/24 95/200/24
f 102/202/25 96/212/25 94/203/25
f 101/205/4 103/215/4 94/206/4
f 104/208/2 95/244/2 96/209/2
f 93/211/26 99/187/26 98/189/26
f 96/212/27 100/184/27 97/186/27
f 94/206/4 97/181/4 99/183/4
f 96/209/2 95/244/2 98/213/2
f 67/151/2 104/208/2 102/210/2
f 65/214/4 54/136/4 103/215/4
f 55/216/28 102/202/28 103/204/28
f 65/218/29 101/199/29 104/201/29
