# Blender v3.5.0 OBJ File: 'hatimaki.blend'
# www.blender.org
mtllib hatimaki/hatimaki.mtl
o 立方体.013_立方体.010
v -0.485000 -0.087094 -0.650000
v -0.485000 0.062906 -0.650000
v -0.485000 -0.087094 0.650000
v -0.485000 0.062906 0.650000
v -0.635000 -0.087094 -0.650000
v -0.635000 0.062906 -0.650000
v -0.635000 -0.087094 0.650000
v -0.635000 0.062906 0.650000
vt 0.250000 0.875000
vt 0.375000 0.750000
vt 0.375000 0.875000
vt 0.250000 1.000000
vt 0.375000 0.875000
vt 0.375000 1.000000
vt 0.125000 1.000000
vt 0.250000 0.875000
vt 0.250000 1.000000
vt 0.625000 0.875000
vt 0.750000 0.750000
vt 0.750000 0.875000
vt 0.625000 0.500000
vt 0.500000 0.625000
vt 0.500000 0.500000
vt 0.375000 0.625000
vt 0.250000 0.750000
vt 0.250000 0.625000
vt 0.250000 0.750000
vt 0.250000 0.875000
vt 0.125000 0.875000
vt 0.625000 0.750000
vt 0.625000 0.625000
vt 0.375000 0.750000
vn 1.0000 0.0000 0.0000
vn 0.0000 0.0000 1.0000
vn -1.0000 0.0000 0.0000
vn 0.0000 0.0000 -1.0000
vn 0.0000 -1.0000 0.0000
vn 0.0000 1.0000 0.0000
usemtl マテリアル.013
s off
f 2/1/1 3/2/1 1/3/1
f 4/4/2 7/5/2 3/6/2
f 8/7/3 5/8/3 7/9/3
f 6/10/4 1/11/4 5/12/4
f 7/13/5 1/14/5 3/15/5
f 4/16/6 6/17/6 8/18/6
f 2/1/1 4/19/1 3/2/1
f 4/4/2 8/20/2 7/5/2
f 8/7/3 6/21/3 5/8/3
f 6/10/4 2/22/4 1/11/4
f 7/13/5 5/23/5 1/14/5
f 4/16/6 2/24/6 6/17/6
o 立方体.014_立方体.011
v -0.634550 -0.087094 -0.655000
v -0.634550 0.062906 -0.655000
v 0.634550 -0.087094 -0.655000
v 0.634550 0.062906 -0.655000
v -0.634550 -0.087094 -0.505000
v -0.634550 0.062906 -0.505000
v 0.634550 -0.087094 -0.505000
v 0.634550 0.062906 -0.505000
vt 0.750000 0.750000
vt 0.875000 0.625000
vt 0.875000 0.750000
vt 0.750000 0.375000
vt 0.875000 0.250000
vt 0.875000 0.375000
vt 0.750000 0.250000
vt 0.875000 0.125000
vt 0.125000 0.875000
vt 0.250000 0.750000
vt 0.250000 0.875000
vt 0.750000 0.500000
vt 0.625000 0.625000
vt 0.625000 0.500000
vt 0.750000 0.625000
vt 0.625000 0.750000
vt 0.625000 0.625000
vt 0.750000 0.125000
vt 0.125000 0.750000
vt 0.750000 0.625000
vn 0.0000 0.0000 -1.0000
vn 1.0000 0.0000 0.0000
vn 0.0000 0.0000 1.0000
vn -1.0000 0.0000 0.0000
vn 0.0000 -1.0000 0.0000
vn 0.0000 1.0000 0.0000
usemtl マテリアル.014
s off
f 10/25/7 11/26/7 9/27/7
f 12/28/8 15/29/8 11/30/8
f 16/31/9 13/32/9 15/29/9
f 14/33/10 9/34/10 13/35/10
f 15/36/11 9/37/11 11/38/11
f 12/39/12 14/40/12 16/41/12
f 10/25/7 12/39/7 11/26/7
f 12/28/8 16/31/8 15/29/8
f 16/31/9 14/42/9 13/32/9
f 14/33/10 10/43/10 9/34/10
f 15/36/11 13/44/11 9/37/11
f 12/39/12 10/25/12 14/40/12
o 立方体.015_立方体.016
v 0.635000 -0.087094 -0.650000
v 0.635000 0.062906 -0.650000
v 0.635000 -0.087094 0.650000
v 0.635000 0.062906 0.650000
v 0.485000 -0.087094 -0.650000
v 0.485000 0.062906 -0.650000
v 0.485000 -0.087094 0.650000
v 0.485000 0.062906 0.650000
vt 0.750000 0.125000
vt 0.875000 0.000000
vt 0.875000 0.125000
vt 0.000000 0.875000
vt 0.125000 0.750000
vt 0.125000 0.875000
vt 0.500000 1.000000
vt 0.625000 0.875000
vt 0.625000 1.000000
vt 0.875000 0.375000
vt 1.000000 0.250000
vt 1.000000 0.375000
vt 0.750000 0.375000
vt 0.625000 0.500000
vt 0.625000 0.375000
vt 0.625000 0.250000
vt 0.500000 0.375000
vt 0.500000 0.250000
vt 0.750000 0.000000
vt 0.000000 0.750000
vt 0.500000 0.875000
vt 0.875000 0.250000
vt 0.750000 0.500000
vt 0.625000 0.375000
vn 1.0000 0.0000 0.0000
vn 0.0000 0.0000 1.0000
vn -1.0000 0.0000 0.0000
vn 0.0000 0.0000 -1.0000
vn 0.0000 -1.0000 0.0000
vn 0.0000 1.0000 0.0000
usemtl マテリアル.015
s off
f 18/45/13 19/46/13 17/47/13
f 20/48/14 23/49/14 19/50/14
f 24/51/15 21/52/15 23/53/15
f 22/54/16 17/55/16 21/56/16
f 23/57/17 17/58/17 19/59/17
f 20/60/18 22/61/18 24/62/18
f 18/45/13 20/63/13 19/46/13
f 20/48/14 24/64/14 23/49/14
f 24/51/15 22/65/15 21/52/15
f 22/54/16 18/66/16 17/55/16
f 23/57/17 21/67/17 17/58/17
f 20/60/18 18/68/18 22/61/18
o 立方体.016_立方体.017
v -0.634550 -0.087094 0.503063
v -0.634550 0.062906 0.503063
v 0.634550 -0.087094 0.503063
v 0.634550 0.062906 0.503063
v -0.634550 -0.087094 0.653063
v -0.634550 0.062906 0.653063
v 0.634550 -0.087094 0.653063
v 0.634550 0.062906 0.653063
vt 0.375000 0.875000
vt 0.500000 0.750000
vt 0.500000 0.875000
vt 0.750000 0.500000
vt 0.875000 0.375000
vt 0.875000 0.500000
vt 0.500000 0.875000
vt 0.625000 0.750000
vt 0.625000 0.875000
vt 0.750000 0.625000
vt 0.875000 0.500000
vt 0.875000 0.625000
vt 0.750000 0.250000
vt 0.625000 0.375000
vt 0.625000 0.250000
vt 0.625000 0.375000
vt 0.500000 0.500000
vt 0.500000 0.375000
vt 0.375000 0.750000
vt 0.750000 0.375000
vt 0.500000 0.750000
vt 0.750000 0.500000
vt 0.750000 0.375000
vt 0.625000 0.500000
vn -0.0000 0.0000 -1.0000
vn 1.0000 0.0000 0.0000
vn 0.0000 0.0000 1.0000
vn -1.0000 0.0000 0.0000
vn 0.0000 -1.0000 0.0000
vn 0.0000 1.0000 0.0000
usemtl マテリアル.016
s off
f 26/69/19 27/70/19 25/71/19
f 28/72/20 31/73/20 27/74/20
f 32/75/21 29/76/21 31/77/21
f 30/78/22 25/79/22 29/80/22
f 31/81/23 25/82/23 27/83/23
f 28/84/24 30/85/24 32/86/24
f 26/69/19 28/87/19 27/70/19
f 28/72/20 32/88/20 31/73/20
f 32/75/21 30/89/21 29/76/21
f 30/78/22 26/90/22 25/79/22
f 31/81/23 29/91/23 25/82/23
f 28/84/24 26/92/24 30/85/24
o 立方体.001_立方体.018
v -0.437768 -1.095188 -1.357441
v -0.517418 -1.001606 -1.443455
v 0.100190 -0.103361 -0.776499
v 0.020541 -0.009779 -0.862513
v -0.547827 -1.095188 -1.255525
v -0.627477 -1.001606 -1.341539
v -0.009869 -0.103361 -0.674583
v -0.089519 -0.009779 -0.760597
vt 0.750000 1.000000
vt 0.625000 0.875000
vt 0.750000 0.875000
vt 0.875000 0.625000
vt 1.000000 0.500000
vt 1.000000 0.625000
vt 0.875000 0.375000
vt 1.000000 0.375000
vt 0.375000 1.000000
vt 0.500000 0.875000
vt 0.500000 1.000000
vt 0.500000 0.625000
vt 0.375000 0.750000
vt 0.375000 0.625000
vt 0.625000 0.625000
vt 0.500000 0.750000
vt 0.500000 0.625000
vt 0.625000 1.000000
vt 0.875000 0.500000
vt 0.375000 0.875000
vt 0.500000 0.750000
vt 0.625000 0.750000
vn 0.7337 0.0000 -0.6794
vn 0.4239 0.7815 0.4578
vn -0.7337 0.0000 0.6794
vn -0.4239 -0.7815 -0.4578
vn 0.5310 -0.6239 0.5734
vn -0.5310 0.6239 -0.5734
usemtl マテリアル.017
s off
f 33/93/25 36/94/25 35/95/25
f 36/96/26 39/97/26 35/98/26
f 39/97/27 38/99/27 37/100/27
f 38/101/28 33/102/28 37/103/28
f 39/104/29 33/105/29 35/106/29
f 36/107/30 38/108/30 40/109/30
f 33/93/25 34/110/25 36/94/25
f 36/96/26 40/111/26 39/97/26
f 39/97/27 40/111/27 38/99/27
f 38/101/28 34/112/28 33/102/28
f 39/104/29 37/113/29 33/105/29
f 36/107/30 34/114/30 38/108/30
o 立方体.002_立方体.019
v 0.584495 -1.091609 -1.250056
v 0.664145 -0.998027 -1.336070
v 0.046537 -0.099781 -0.669114
v 0.126187 -0.006199 -0.755127
v 0.474436 -1.091609 -1.351972
v 0.554085 -0.998027 -1.437986
v -0.063522 -0.099781 -0.771030
v 0.016127 -0.006199 -0.857044
vt 0.750000 0.875000
vt 0.875000 0.750000
vt 0.875000 0.875000
vt 0.000000 1.000000
vt 0.125000 0.875000
vt 0.125000 1.000000
vt 0.875000 0.125000
vt 1.000000 0.000000
vt 1.000000 0.125000
vt 0.875000 0.250000
vt 1.000000 0.125000
vt 1.000000 0.250000
vt 0.500000 0.500000
vt 0.375000 0.625000
vt 0.375000 0.500000
vt 0.375000 0.500000
vt 0.250000 0.625000
vt 0.250000 0.500000
vt 0.750000 0.750000
vt 0.000000 0.875000
vt 0.875000 0.000000
vt 0.875000 0.125000
vt 0.500000 0.625000
vt 0.375000 0.625000
vn 0.7337 0.0000 0.6794
vn -0.4239 0.7815 0.4578
vn -0.7337 0.0000 -0.6794
vn 0.4239 -0.7815 -0.4578
vn -0.5310 -0.6239 0.5734
vn 0.5310 0.6239 -0.5734
usemtl マテリアル.018
s off
f 42/115/31 43/116/31 41/117/31
f 44/118/32 47/119/32 43/120/32
f 48/121/33 45/122/33 47/123/33
f 46/124/34 41/125/34 45/126/34
f 47/127/35 41/128/35 43/129/35
f 44/130/36 46/131/36 48/132/36
f 42/115/31 44/133/31 43/116/31
f 44/118/32 48/134/32 47/119/32
f 48/121/33 46/135/33 45/122/33
f 46/124/34 42/136/34 41/125/34
f 47/127/35 45/137/35 41/128/35
f 44/130/36 42/138/36 46/131/36
o 立方体_立方体.020
v 0.100000 -0.095599 -0.863582
v 0.100000 0.104401 -0.863582
v 0.100000 -0.095599 -0.663582
v 0.100000 0.104401 -0.663582
v -0.100000 -0.095599 -0.863582
v -0.100000 0.104401 -0.863582
v -0.100000 -0.095599 -0.663582
v -0.100000 0.104401 -0.663582
vt 0.250000 0.750000
vt 0.000000 0.500000
vt 0.250000 0.500000
vt 0.500000 0.500000
vt 0.250000 0.250000
vt 0.500000 0.250000
vt 0.500000 0.250000
vt 0.250000 0.000000
vt 0.500000 0.000000
vt 0.250000 0.500000
vt 0.000000 0.250000
vt 0.250000 0.250000
vt 0.750000 0.000000
vt 0.500000 0.250000
vt 0.500000 0.000000
vt 0.250000 0.000000
vt 0.000000 0.250000
vt 0.000000 0.000000
vt 0.000000 0.750000
vt 0.250000 0.500000
vt 0.250000 0.250000
vt 0.000000 0.500000
vt 0.750000 0.250000
vt 0.250000 0.250000
vn 1.0000 0.0000 0.0000
vn 0.0000 0.0000 1.0000
vn -1.0000 0.0000 0.0000
vn 0.0000 0.0000 -1.0000
vn 0.0000 -1.0000 0.0000
vn 0.0000 1.0000 0.0000
usemtl マテリアル.019
s off
f 50/139/37 51/140/37 49/141/37
f 52/142/38 55/143/38 51/144/38
f 56/145/39 53/146/39 55/147/39
f 54/148/40 49/149/40 53/150/40
f 55/151/41 49/152/41 51/153/41
f 52/154/42 54/155/42 56/156/42
f 50/139/37 52/157/37 51/140/37
f 52/142/38 56/158/38 55/143/38
f 56/145/39 54/159/39 53/146/39
f 54/148/40 50/160/40 49/149/40
f 55/151/41 53/161/41 49/152/41
f 52/154/42 50/162/42 54/155/42
