# Blender v3.5.0 OBJ File: 'player.blend'
# www.blender.org
mtllib player/Parts/pLLeg1/pLLeg1.mtl
o 立方体.009_立方体.006
v -0.158221 -2.012185 -0.266971
v -0.263910 -0.306855 -0.379284
v -0.158221 -2.012185 0.266971
v -0.263910 -0.306855 0.379284
v 0.160459 -2.012185 -0.266971
v 0.333399 -0.306855 -0.375715
v 0.160459 -2.012185 0.266971
v 0.333399 -0.306855 0.375715
vt 0.376071 0.397062
vt 0.353178 0.457587
vt 0.357157 0.397062
vt 0.273293 0.645270
vt 0.258236 0.705804
vt 0.262004 0.645265
vt 0.469799 0.416183
vt 0.447032 0.476902
vt 0.450884 0.416183
vt 0.154917 0.644787
vt 0.169973 0.705321
vt 0.148814 0.705321
vt 0.717681 0.968929
vt 0.706392 0.950015
vt 0.717681 0.950015
vt 0.353178 0.772551
vt 0.374337 0.799296
vt 0.353178 0.799170
vt 0.380050 0.457587
vt 0.279396 0.705804
vt 0.473651 0.476902
vt 0.166206 0.644783
vt 0.706392 0.968929
vt 0.374337 0.772425
vn -0.9981 -0.0619 0.0000
vn 0.0000 -0.0657 0.9978
vn 0.9949 -0.1009 0.0000
vn 0.0060 -0.0642 -0.9979
vn 0.0000 -1.0000 0.0000
vn 0.0000 1.0000 0.0000
vn 0.0060 -0.0642 0.9979
vn 0.0000 -0.0657 -0.9978
usemtl マテリアル.007
s off
f 3/1/1 2/2/1 1/3/1
f 7/4/2 4/5/2 3/6/2
f 5/7/3 8/8/3 7/9/3
f 5/10/4 2/11/4 6/12/4
f 1/13/5 7/14/5 3/15/5
f 6/16/6 4/17/6 8/18/6
f 3/1/1 4/19/1 2/2/1
f 7/4/7 8/20/7 4/5/7
f 5/7/3 6/21/3 8/8/3
f 5/10/8 1/22/8 2/11/8
f 1/13/5 5/23/5 7/14/5
f 6/16/6 2/24/6 4/17/6
