# Blender v3.5.0 OBJ File: 'ShopFlag.blend'
# www.blender.org
mtllib ShopFlag/ShopFlag.mtl
o 立方体
v 0.100181 0.000000 -0.100181
v 0.100181 10.000000 -0.100181
v 0.100181 0.000000 0.100181
v 0.100181 10.000000 0.100181
v -0.100181 0.000000 -0.100181
v -0.100181 10.000000 -0.100181
v -0.100181 0.000000 0.100181
v -0.100181 10.000000 0.100181
vt 0.741604 0.491604
vt 0.508396 0.258396
vt 0.741604 0.258396
vt 0.491604 0.741604
vt 0.258396 0.508395
vt 0.491604 0.508396
vt 0.741604 0.741604
vt 0.508396 0.508395
vt 0.741604 0.508396
vt 0.241604 0.991605
vt 0.008396 0.758396
vt 0.241604 0.758396
vt 0.991605 0.008396
vt 0.758396 0.241604
vt 0.758396 0.008396
vt 0.491604 0.758396
vt 0.258396 0.991604
vt 0.258396 0.758396
vt 0.508395 0.491604
vt 0.258396 0.741604
vt 0.508395 0.741604
vt 0.008396 0.991604
vt 0.991604 0.241604
vt 0.491604 0.991605
vn 1.0000 0.0000 0.0000
vn 0.0000 0.0000 1.0000
vn -1.0000 0.0000 0.0000
vn 0.0000 0.0000 -1.0000
vn 0.0000 -1.0000 0.0000
vn 0.0000 1.0000 0.0000
usemtl マテリアル
s off
f 2/1/1 3/2/1 1/3/1
f 4/4/2 7/5/2 3/6/2
f 8/7/3 5/8/3 7/9/3
f 6/10/4 1/11/4 5/12/4
f 7/13/5 1/14/5 3/15/5
f 4/16/6 6/17/6 8/18/6
f 2/1/1 4/19/1 3/2/1
f 4/4/2 8/20/2 7/5/2
f 8/7/3 6/21/3 5/8/3
f 6/10/4 2/22/4 1/11/4
f 7/13/5 5/23/5 1/14/5
f 4/16/6 2/24/6 6/17/6
