# Blender v3.5.0 OBJ File: 'player.blend'
# www.blender.org
mtllib player/Parts/pLFoot/pLFoot.mtl
o 立方体.011_立方体.008
v -0.279036 -0.520918 -0.372405
v -0.280000 -0.006855 -0.300000
v -0.285035 -0.520918 1.700000
v -0.280000 -0.006855 0.319428
v 0.266660 -0.520918 -0.372405
v 0.245104 -0.006855 -0.300000
v 0.201234 -0.520918 1.700000
v 0.202800 -0.006855 0.319428
vt 0.371388 0.517883
vt 0.353178 0.542390
vt 0.353178 0.520447
vt 0.528034 0.355376
vt 0.545207 0.304059
vt 0.545260 0.355418
vt 0.578402 0.103594
vt 0.560133 0.079027
vt 0.578402 0.030148
vt 0.893217 0.030182
vt 0.911607 0.048749
vt 0.893217 0.049513
vt 0.277567 0.470270
vt 0.260341 0.396908
vt 0.277567 0.396858
vt 0.528104 0.304018
vt 0.545260 0.282465
vt 0.371388 0.591295
vt 0.560189 0.101011
vt 0.911607 0.030148
vt 0.258236 0.470326
vt 0.526658 0.282419
vn -1.0000 -0.0019 0.0000
vn 0.0000 0.9371 0.3489
vn 0.9962 0.0814 0.0314
vn 0.0000 0.1395 -0.9902
vn 0.0000 -1.0000 0.0000
vn 0.0000 1.0000 0.0000
vn -1.0000 0.0020 -0.0029
vn 0.9972 0.0322 0.0681
usemtl マテリアル.010
s off
f 1/1/1 4/2/1 2/3/1
f 7/4/2 4/5/2 3/6/2
f 5/7/3 8/8/3 7/9/3
f 1/10/4 6/11/4 5/12/4
f 1/13/5 7/14/5 3/15/5
f 8/16/6 2/17/6 4/5/6
f 1/1/7 3/18/7 4/2/7
f 7/4/2 8/16/2 4/5/2
f 5/7/8 6/19/8 8/8/8
f 1/10/4 2/20/4 6/11/4
f 1/13/5 5/21/5 7/14/5
f 8/16/6 6/22/6 2/17/6
