# Blender v3.5.0 OBJ File: 'player.blend'
# www.blender.org
mtllib pRFoot.mtl
o 立方体.002
v 0.279036 -0.520918 -0.372405
v 0.280000 -0.006855 -0.300000
v 0.285035 -0.520918 1.700000
v 0.280000 -0.006855 0.319428
v -0.266660 -0.520918 -0.372405
v -0.245104 -0.006855 -0.300000
v -0.201234 -0.520918 1.700000
v -0.202800 -0.006855 0.319428
vt 0.048358 0.601106
vt 0.030148 0.576598
vt 0.048358 0.527693
vt 0.552495 0.467542
vt 0.535322 0.416225
vt 0.552547 0.416183
vt 0.148814 0.535608
vt 0.167084 0.511041
vt 0.167084 0.584487
vt 0.909136 0.859216
vt 0.890746 0.877783
vt 0.890746 0.858452
vt 0.449137 0.355838
vt 0.466363 0.282475
vt 0.466363 0.355888
vt 0.535392 0.467584
vt 0.552547 0.489137
vt 0.533946 0.489182
vt 0.030148 0.598541
vt 0.148871 0.513623
vt 0.909136 0.877817
vt 0.447032 0.282419
vn 1.0000 0.0020 -0.0029
vn 0.0000 0.9371 0.3489
vn -0.9962 0.0814 0.0314
vn 0.0000 0.1395 -0.9902
vn 0.0000 -1.0000 -0.0000
vn 0.0000 1.0000 0.0000
vn 1.0000 -0.0019 0.0000
vn -0.9972 0.0322 0.0681
usemtl マテリアル.011
s off
f 1/1/1 4/2/1 3/3/1
f 4/4/2 7/5/2 3/6/2
f 8/7/3 5/8/3 7/9/3
f 6/10/4 1/11/4 5/12/4
f 7/13/5 1/14/5 3/15/5
f 8/16/6 2/17/6 6/18/6
f 1/1/7 2/19/7 4/2/7
f 4/4/2 8/16/2 7/5/2
f 8/7/8 6/20/8 5/8/8
f 6/10/4 2/21/4 1/11/4
f 7/13/5 5/22/5 1/14/5
f 8/16/6 4/4/6 2/17/6
