# Blender v3.5.0 OBJ File: ''
# www.blender.org
mtllib X.mtl
o Cube
v 0.000000 0.129759 0.200000
v 0.089649 0.000000 -0.200000
v 0.000000 0.129759 -0.200000
v 0.089649 0.000000 0.200000
v 0.000000 0.000000 0.200000
v 0.000000 0.000000 -0.200000
v -0.089649 0.000000 -0.200000
v -0.089649 0.000000 0.200000
v 0.197463 -0.440672 0.200000
v 0.419191 -0.550112 -0.200000
v 0.197463 -0.440672 -0.200000
v 0.419191 -0.550112 0.200000
v 0.393757 -0.440672 0.200000
v 0.393757 -0.440672 -0.200000
v 0.181567 -0.550112 -0.200000
v 0.310107 -0.440672 -0.200000
v 0.181567 -0.550112 0.200000
v 0.310107 -0.440672 0.200000
v 0.000000 -0.129759 0.200000
v 0.000000 -0.129759 -0.200000
v 0.310107 -0.550112 0.200000
v 0.053027 -0.550112 0.200000
v 0.053027 -0.550112 -0.200000
v 0.310107 -0.550112 -0.200000
v 0.528274 -0.550112 0.200000
v 0.310107 -0.550112 0.200000
v 0.310107 -0.550112 -0.200000
v 0.528274 -0.550112 -0.200000
v 0.053027 -0.440672 0.200000
v 0.053027 -0.440672 -0.200000
v 0.528274 -0.440672 0.200000
v 0.528274 -0.440672 -0.200000
v 0.213727 -0.176922 -0.200000
v 0.093391 -0.261264 0.200000
v 0.093391 -0.261264 -0.200000
v 0.213727 -0.176922 0.200000
v 0.153559 -0.219093 0.200000
v 0.153559 -0.219093 -0.200000
v 0.290507 -0.286469 -0.200000
v 0.290507 -0.286469 0.200000
v 0.230339 -0.328640 0.200000
v 0.230339 -0.328640 -0.200000
v -0.197463 -0.440672 0.200000
v -0.419191 -0.550112 -0.200000
v -0.197463 -0.440672 -0.200000
v -0.419191 -0.550112 0.200000
v -0.393757 -0.440672 0.200000
v -0.393757 -0.440672 -0.200000
v -0.181567 -0.550112 -0.200000
v -0.310107 -0.440672 -0.200000
v -0.181567 -0.550112 0.200000
v -0.310107 -0.440672 0.200000
v -0.310107 -0.550112 0.200000
v -0.053027 -0.550112 0.200000
v -0.053027 -0.550112 -0.200000
v -0.310107 -0.550112 -0.200000
v -0.528274 -0.550112 0.200000
v -0.310107 -0.550112 0.200000
v -0.310107 -0.550112 -0.200000
v -0.528274 -0.550112 -0.200000
v -0.053027 -0.440672 0.200000
v -0.053027 -0.440672 -0.200000
v -0.528274 -0.440672 0.200000
v -0.528274 -0.440672 -0.200000
v -0.213727 -0.176922 -0.200000
v -0.093391 -0.261264 0.200000
v -0.093391 -0.261264 -0.200000
v -0.213727 -0.176922 0.200000
v -0.153559 -0.219093 0.200000
v -0.153559 -0.219093 -0.200000
v -0.290507 -0.286469 -0.200000
v -0.290507 -0.286469 0.200000
v -0.230339 -0.328640 0.200000
v -0.230339 -0.328640 -0.200000
v 0.197463 0.440672 0.200000
v 0.419191 0.550112 -0.200000
v 0.197463 0.440672 -0.200000
v 0.419191 0.550112 0.200000
v 0.393757 0.440672 0.200000
v 0.393757 0.440672 -0.200000
v 0.181567 0.550112 -0.200000
v 0.310107 0.440672 -0.200000
v 0.181567 0.550112 0.200000
v 0.310107 0.440672 0.200000
v 0.310107 0.550112 0.200000
v 0.053027 0.550112 0.200000
v 0.053027 0.550112 -0.200000
v 0.310107 0.550112 -0.200000
v 0.528274 0.550112 0.200000
v 0.310107 0.550112 0.200000
v 0.310107 0.550112 -0.200000
v 0.528274 0.550112 -0.200000
v 0.053027 0.440672 0.200000
v 0.053027 0.440672 -0.200000
v 0.528274 0.440672 0.200000
v 0.528274 0.440672 -0.200000
v 0.213727 0.176922 -0.200000
v 0.093391 0.261264 0.200000
v 0.093391 0.261264 -0.200000
v 0.213727 0.176922 0.200000
v 0.153559 0.219093 0.200000
v 0.153559 0.219093 -0.200000
v 0.290507 0.286469 -0.200000
v 0.290507 0.286469 0.200000
v 0.230339 0.328640 0.200000
v 0.230339 0.328640 -0.200000
v -0.197463 0.440672 0.200000
v -0.419191 0.550112 -0.200000
v -0.197463 0.440672 -0.200000
v -0.419191 0.550112 0.200000
v -0.393757 0.440672 0.200000
v -0.393757 0.440672 -0.200000
v -0.181567 0.550112 -0.200000
v -0.310107 0.440672 -0.200000
v -0.181567 0.550112 0.200000
v -0.310107 0.440672 0.200000
v -0.310107 0.550112 0.200000
v -0.053027 0.550112 0.200000
v -0.053027 0.550112 -0.200000
v -0.310107 0.550112 -0.200000
v -0.528274 0.550112 0.200000
v -0.310107 0.550112 0.200000
v -0.310107 0.550112 -0.200000
v -0.528274 0.550112 -0.200000
v -0.053027 0.440672 0.200000
v -0.053027 0.440672 -0.200000
v -0.528274 0.440672 0.200000
v -0.528274 0.440672 -0.200000
v -0.213727 0.176922 -0.200000
v -0.093391 0.261264 0.200000
v -0.093391 0.261264 -0.200000
v -0.213727 0.176922 0.200000
v -0.153559 0.219093 0.200000
v -0.153559 0.219093 -0.200000
v -0.290507 0.286469 -0.200000
v -0.290507 0.286469 0.200000
v -0.230339 0.328640 0.200000
v -0.230339 0.328640 -0.200000
vt 0.396766 0.329921
vt 0.392025 0.292619
vt 0.411321 0.319720
vt 0.679447 0.000000
vt 0.724338 0.483802
vt 0.679447 0.483802
vt 0.542055 0.000000
vt 0.514807 0.026474
vt 0.510961 0.000000
vt 0.522759 0.053574
vt 0.542055 0.026474
vt 0.537314 0.063776
vt 0.562290 0.026474
vt 0.795719 0.483802
vt 0.815194 0.967605
vt 0.795719 0.967605
vt 0.419274 0.292619
vt 0.479867 0.026474
vt 0.479867 0.000000
vt 0.871837 0.967605
vt 0.854505 0.483802
vt 0.871837 0.483802
vt 0.542055 0.000000
vt 0.965331 0.483802
vt 0.983468 0.967605
vt 0.965331 0.967605
vt 0.392025 0.266146
vt 0.739557 0.967605
vt 0.724849 0.483802
vt 0.739557 0.483802
vt 0.854505 0.967605
vt 0.837174 0.483802
vt 0.365637 0.266146
vt 0.339250 0.292619
vt 0.339250 0.266146
vt 0.837174 0.967605
vt 0.815194 0.483802
vt 0.837174 0.483802
vt 0.423119 0.266146
vt 0.454213 0.292620
vt 0.568443 0.000000
vt 0.594830 0.026474
vt 0.392025 0.266146
vt 0.371790 0.292619
vt 0.724849 0.967605
vt 0.702869 0.483802
vt 0.754265 0.967605
vt 0.754265 0.483802
vt 0.467040 0.367830
vt 0.429894 0.346220
vt 0.444449 0.336018
vt 0.488726 0.133073
vt 0.504186 0.080074
vt 0.518741 0.090275
vt 0.467040 0.101684
vt 0.467040 0.133073
vt 0.853846 0.000000
vt 0.892849 0.483802
vt 0.853846 0.483802
vt 0.594830 0.000000
vt 0.647093 0.483802
vt 0.594830 0.483802
vt 0.445354 0.399218
vt 0.467040 0.399218
vt 0.489632 0.069873
vt 0.892849 0.000000
vt 0.942914 0.483802
vt 0.647093 0.000000
vt 0.415339 0.356421
vt 0.542055 0.292620
vt 0.537314 0.329921
vt 0.522759 0.319720
vt 0.299133 0.000000
vt 0.254241 0.483802
vt 0.254241 0.000000
vt 0.419274 0.026474
vt 0.392025 0.000000
vt 0.423119 0.000000
vt 0.411321 0.053574
vt 0.392025 0.026474
vt 0.396766 0.063776
vt 0.942914 0.483802
vt 0.962388 0.000000
vt 0.962388 0.483802
vt 0.514807 0.292620
vt 0.454213 0.026474
vt 0.454213 0.000000
vt 0.634142 0.483802
vt 0.616810 0.967605
vt 0.616810 0.483802
vt 0.392025 0.000000
vt 0.371790 0.026474
vt 0.365637 0.000000
vt 0.299133 0.483802
vt 0.317270 0.000000
vt 0.317270 0.483802
vt 0.542055 0.266146
vt 0.510961 0.266146
vt 0.935915 0.483802
vt 0.921207 0.967605
vt 0.921207 0.483802
vt 0.651473 0.483802
vt 0.634142 0.967605
vt 0.594830 0.292620
vt 0.568443 0.266146
vt 0.594830 0.266146
vt 0.594830 0.967605
vt 0.479867 0.292620
vt 0.479867 0.266146
vt 0.339250 0.026474
vt 0.339250 0.000000
vt 0.562290 0.292620
vt 0.542055 0.266146
vt 0.339250 0.000000
vt 0.339250 0.483802
vt 0.906499 0.967605
vt 0.906499 0.483802
vt 0.504186 0.346220
vt 0.445354 0.133073
vt 0.429894 0.080074
vt 0.128071 0.483802
vt 0.089068 0.967605
vt 0.089068 0.483802
vt 0.221888 0.000000
vt 0.169625 0.483802
vt 0.169625 0.000000
vt 0.488726 0.399218
vt 0.489632 0.336018
vt 0.415339 0.090275
vt 0.444449 0.069873
vt 0.178136 0.483802
vt 0.128071 0.967605
vt 0.221888 0.483802
vt 0.518741 0.356421
vt 0.392025 0.505817
vt 0.396766 0.468516
vt 0.411321 0.478717
vt 0.040117 0.483802
vt 0.085009 0.000000
vt 0.085009 0.483802
vt 0.514807 0.239672
vt 0.542055 0.266146
vt 0.510961 0.266146
vt 0.522759 0.212571
vt 0.542055 0.239672
vt 0.537314 0.202370
vt 0.981863 0.000000
vt 0.962388 0.483802
vt 0.962388 0.000000
vt 0.419274 0.505817
vt 0.479867 0.239672
vt 0.479867 0.266146
vt 0.284535 0.967605
vt 0.301866 0.483802
vt 0.301866 0.967605
vt 0.542055 0.266146
vt 0.562290 0.239672
vt 0.568443 0.266146
vt 0.040117 0.000000
vt 0.021980 0.483802
vt 0.021980 0.000000
vt 0.392025 0.532291
vt 0.423119 0.532291
vt 0.935915 0.967605
vt 0.950623 0.483802
vt 0.950623 0.967605
vt 0.267204 0.967605
vt 0.284535 0.483802
vt 0.339250 0.505817
vt 0.365637 0.532291
vt 0.339250 0.532291
vt 0.323846 0.483802
vt 0.454213 0.505817
vt 0.454213 0.532291
vt 0.594830 0.239672
vt 0.594830 0.266146
vt 0.371790 0.505817
vt 0.392025 0.532291
vt 0.000000 0.483802
vt 0.000000 0.000000
vt 0.965331 0.483802
vt 0.965331 0.967605
vt 0.467040 0.430607
vt 0.429894 0.452217
vt 0.504186 0.186072
vt 0.467040 0.164462
vt 0.050064 0.967605
vt 0.089068 0.483802
vt 0.089068 0.967605
vt 0.117362 0.483802
vt 0.169625 0.000000
vt 0.169625 0.483802
vt 0.444449 0.462419
vt 0.518741 0.175871
vt 0.489632 0.196273
vt 0.000000 0.967605
vt 0.050064 0.483802
vt 0.117362 0.000000
vt 0.415339 0.442016
vt 0.537314 0.468516
vt 0.542055 0.505817
vt 0.522759 0.478717
vt 0.769229 0.483802
vt 0.724338 0.000000
vt 0.769229 0.000000
vt 0.392025 0.266146
vt 0.419274 0.239672
vt 0.423119 0.266146
vt 0.411321 0.212571
vt 0.392025 0.239672
vt 0.396766 0.202370
vt 0.371790 0.239672
vt 0.795719 0.967605
vt 0.776245 0.483802
vt 0.795719 0.483802
vt 0.514807 0.505817
vt 0.454213 0.239672
vt 0.454213 0.266146
vt 0.871837 0.483802
vt 0.889168 0.967605
vt 0.871837 0.967605
vt 0.392025 0.266146
vt 1.000000 0.483802
vt 0.981863 0.000000
vt 1.000000 0.000000
vt 0.542055 0.532291
vt 0.666181 0.483802
vt 0.680889 0.967605
vt 0.666181 0.967605
vt 0.889168 0.483802
vt 0.906499 0.967605
vt 0.568443 0.532291
vt 0.594830 0.505817
vt 0.594830 0.532291
vt 0.754265 0.483802
vt 0.776245 0.967605
vt 0.754265 0.967605
vt 0.510961 0.532291
vt 0.479867 0.505817
vt 0.365637 0.266146
vt 0.339250 0.239672
vt 0.542055 0.532291
vt 0.562290 0.505817
vt 0.680889 0.483802
vt 0.702869 0.967605
vt 0.651473 0.483802
vt 0.651473 0.967605
vt 0.504186 0.452217
vt 0.489632 0.462419
vt 0.429894 0.186072
vt 0.415339 0.175871
vt 0.267203 0.967605
vt 0.228200 0.483802
vt 0.267203 0.483802
vt 0.853846 0.483802
vt 0.801583 0.000000
vt 0.853846 0.000000
vt 0.444449 0.196273
vt 0.228200 0.967605
vt 0.178136 0.483802
vt 0.801583 0.483802
vt 0.518741 0.442016
vt 0.724338 0.000000
vt 0.983468 0.483802
vt 0.837174 0.967605
vt 0.454213 0.266146
vt 0.594830 0.000000
vt 0.702869 0.967605
vt 0.942914 0.000000
vt 0.942914 0.000000
vt 0.935915 0.967605
vt 0.651473 0.967605
vt 0.594830 0.483802
vt 0.178136 0.967605
vt 0.981863 0.483802
vt 0.935915 0.483802
vt 0.267204 0.483802
vt 0.323846 0.967605
vt 0.000000 0.483802
vt 0.724338 0.483802
vt 0.981863 0.483802
vt 0.906499 0.483802
vt 0.479867 0.532291
vt 0.339250 0.266146
vt 0.702869 0.483802
vt 0.178136 0.967605
vn 0.0000 0.0000 -1.0000
vn 0.8309 0.5564 0.0000
vn 0.0000 0.0000 1.0000
vn 0.0000 1.0000 0.0000
vn 0.0000 -1.0000 0.0000
vn -1.0000 0.0000 0.0000
vn 1.0000 0.0000 0.0000
vn -0.8153 -0.5790 0.0000
vn 0.8187 0.5742 0.0000
vn -0.8650 -0.5018 0.0000
vn 0.8189 0.5739 0.0000
vn -0.8309 0.5564 0.0000
vn 0.8153 -0.5790 0.0000
vn -0.8187 0.5742 0.0000
vn 0.8650 -0.5018 0.0000
vn -0.8189 0.5739 -0.0000
vn 0.8309 -0.5564 0.0000
vn -0.8153 0.5790 0.0000
vn 0.8187 -0.5742 0.0000
vn -0.8650 0.5018 0.0000
vn 0.8189 -0.5739 -0.0000
vn -0.8309 -0.5564 0.0000
vn 0.8153 0.5790 0.0000
vn -0.8187 -0.5742 0.0000
vn 0.8650 0.5018 0.0000
vn -0.8189 -0.5739 0.0000
usemtl Material
s off
f 39/1/1 16/2/1 42/3/1
f 40/4/2 14/5/2 39/6/2
f 21/7/3 9/8/3 17/9/3
f 41/10/3 9/8/3 18/11/3
f 40/12/3 18/11/3 13/13/3
f 11/14/4 29/15/4 9/16/4
f 11/17/1 42/3/1 16/2/1
f 17/9/3 29/18/3 22/19/3
f 23/20/5 17/21/5 22/22/5
f 26/23/3 13/13/3 18/11/3
f 32/24/4 13/25/4 31/26/4
f 24/27/1 11/17/1 16/2/1
f 10/28/5 25/29/5 12/30/5
f 15/31/5 21/32/5 17/21/5
f 10/33/1 32/34/1 28/35/1
f 22/36/6 30/37/6 23/38/6
f 15/39/1 30/40/1 11/17/1
f 12/41/3 31/42/3 13/13/3
f 27/43/1 14/44/1 10/33/1
f 28/45/7 31/46/7 25/29/7
f 27/47/5 12/30/5 26/48/5
f 20/49/1 38/50/1 35/51/1
f 4/52/3 37/53/3 36/54/3
f 19/55/3 37/53/3 5/56/3
f 20/57/8 34/58/8 19/59/8
f 4/60/9 33/61/9 2/62/9
f 2/63/1 38/50/1 6/64/1
f 35/51/1 42/3/1 11/17/1
f 37/53/3 40/12/3 36/54/3
f 34/65/3 41/10/3 37/53/3
f 35/66/10 9/67/10 34/58/10
f 36/68/11 39/6/11 33/61/11
f 33/69/1 42/3/1 38/50/1
f 50/70/1 71/71/1 74/72/1
f 48/73/12 72/74/12 71/75/12
f 43/76/3 53/77/3 51/78/3
f 73/79/3 52/80/3 43/76/3
f 72/81/3 52/80/3 73/79/3
f 61/82/4 45/83/4 43/84/4
f 45/85/1 50/70/1 74/72/1
f 61/86/3 51/78/3 54/87/3
f 51/88/5 55/89/5 54/90/5
f 58/91/3 47/92/3 46/93/3
f 47/94/4 64/95/4 63/96/4
f 56/97/1 45/85/1 49/98/1
f 57/99/5 44/100/5 46/101/5
f 53/102/5 49/103/5 51/88/5
f 64/104/1 44/105/1 60/106/1
f 62/107/7 54/90/7 55/89/7
f 49/98/1 62/108/1 55/109/1
f 46/93/3 63/110/3 57/111/3
f 48/112/1 59/113/1 44/105/1
f 63/96/6 60/114/6 57/115/6
f 46/101/5 59/116/5 58/117/5
f 20/49/1 70/118/1 6/64/1
f 8/119/3 69/120/3 5/56/3
f 69/120/3 19/55/3 5/56/3
f 66/121/13 20/122/13 19/123/13
f 65/124/14 8/125/14 7/126/14
f 70/118/1 7/127/1 6/64/1
f 67/128/1 74/72/1 70/118/1
f 72/81/3 69/120/3 68/129/3
f 73/79/3 66/130/3 69/120/3
f 43/131/15 67/132/15 66/121/15
f 71/75/16 68/133/16 65/124/16
f 74/72/1 65/134/1 70/118/1
f 82/135/1 103/136/1 106/137/1
f 80/138/17 104/139/17 103/140/17
f 75/141/3 85/142/3 83/143/3
f 105/144/3 84/145/3 75/141/3
f 104/146/3 84/145/3 105/144/3
f 93/147/5 77/148/5 75/149/5
f 77/150/1 82/135/1 106/137/1
f 93/151/3 83/143/3 86/152/3
f 83/153/4 87/154/4 86/155/4
f 90/156/3 79/157/3 78/158/3
f 79/159/5 96/160/5 95/161/5
f 88/162/1 77/150/1 81/163/1
f 89/164/4 76/165/4 78/166/4
f 85/167/4 81/168/4 83/153/4
f 96/169/1 76/170/1 92/171/1
f 94/172/6 86/155/6 87/154/6
f 81/163/1 94/173/1 87/174/1
f 78/158/3 95/175/3 89/176/3
f 80/177/1 91/178/1 76/170/1
f 95/161/7 92/179/7 89/180/7
f 78/166/4 91/181/4 90/182/4
f 3/183/1 102/184/1 6/64/1
f 4/52/3 101/185/3 5/56/3
f 101/185/3 1/186/3 5/56/3
f 98/187/18 3/188/18 1/189/18
f 97/190/19 4/191/19 2/192/19
f 102/184/1 2/63/1 6/64/1
f 99/193/1 106/137/1 102/184/1
f 104/146/3 101/185/3 100/194/3
f 105/144/3 98/195/3 101/185/3
f 75/196/20 99/197/20 98/187/20
f 103/140/21 100/198/21 97/190/21
f 106/137/1 97/199/1 102/184/1
f 135/200/1 114/201/1 138/202/1
f 136/203/22 112/204/22 135/205/22
f 117/206/3 107/207/3 115/208/3
f 137/209/3 107/207/3 116/210/3
f 136/211/3 116/210/3 111/212/3
f 109/213/5 125/214/5 107/215/5
f 109/216/1 138/202/1 114/201/1
f 115/208/3 125/217/3 118/218/3
f 119/219/4 115/220/4 118/221/4
f 122/222/3 111/212/3 116/210/3
f 128/223/5 111/224/5 127/225/5
f 120/226/1 109/216/1 114/201/1
f 108/227/4 121/228/4 110/229/4
f 113/230/4 117/231/4 115/220/4
f 108/232/1 128/233/1 124/234/1
f 118/235/7 126/236/7 119/237/7
f 113/238/1 126/239/1 109/216/1
f 110/240/3 127/241/3 111/212/3
f 123/242/1 112/243/1 108/232/1
f 124/244/6 127/245/6 121/228/6
f 123/246/4 110/229/4 122/247/4
f 3/183/1 134/248/1 131/249/1
f 8/119/3 133/250/3 132/251/3
f 1/186/3 133/250/3 5/56/3
f 3/252/23 130/253/23 1/254/23
f 8/255/24 129/256/24 7/257/24
f 7/127/1 134/248/1 6/64/1
f 131/249/1 138/202/1 109/216/1
f 133/250/3 136/211/3 132/251/3
f 130/258/3 137/209/3 133/250/3
f 131/259/25 107/260/25 130/253/25
f 132/261/26 135/205/26 129/256/26
f 129/262/1 138/202/1 134/248/1
f 39/1/1 14/44/1 16/2/1
f 40/4/2 13/263/2 14/5/2
f 21/7/3 18/11/3 9/8/3
f 40/12/3 41/10/3 18/11/3
f 11/14/4 30/37/4 29/15/4
f 17/9/3 9/8/3 29/18/3
f 23/20/5 15/31/5 17/21/5
f 26/23/3 12/41/3 13/13/3
f 32/24/4 14/264/4 13/25/4
f 24/27/1 15/39/1 11/17/1
f 10/28/5 28/45/5 25/29/5
f 15/31/5 24/265/5 21/32/5
f 10/33/1 14/44/1 32/34/1
f 22/36/6 29/15/6 30/37/6
f 15/39/1 23/266/1 30/40/1
f 12/41/3 25/267/3 31/42/3
f 27/43/1 16/2/1 14/44/1
f 28/45/7 32/268/7 31/46/7
f 27/47/5 10/28/5 12/30/5
f 20/49/1 6/64/1 38/50/1
f 4/52/3 5/56/3 37/53/3
f 19/55/3 34/65/3 37/53/3
f 20/57/8 35/66/8 34/58/8
f 4/60/9 36/68/9 33/61/9
f 2/63/1 33/69/1 38/50/1
f 35/51/1 38/50/1 42/3/1
f 37/53/3 41/10/3 40/12/3
f 34/65/3 9/8/3 41/10/3
f 35/66/10 11/269/10 9/67/10
f 36/68/11 40/4/11 39/6/11
f 33/69/1 39/1/1 42/3/1
f 50/70/1 48/112/1 71/71/1
f 48/73/12 47/94/12 72/74/12
f 43/76/3 52/80/3 53/77/3
f 72/81/3 47/92/3 52/80/3
f 61/82/4 62/270/4 45/83/4
f 61/86/3 43/76/3 51/78/3
f 51/88/5 49/103/5 55/89/5
f 58/91/3 52/80/3 47/92/3
f 47/94/4 48/73/4 64/95/4
f 56/97/1 50/70/1 45/85/1
f 57/99/5 60/271/5 44/100/5
f 53/102/5 56/272/5 49/103/5
f 64/104/1 48/112/1 44/105/1
f 62/107/7 61/273/7 54/90/7
f 49/98/1 45/85/1 62/108/1
f 46/93/3 47/92/3 63/110/3
f 48/112/1 50/70/1 59/113/1
f 63/96/6 64/95/6 60/114/6
f 46/101/5 44/100/5 59/116/5
f 20/49/1 67/128/1 70/118/1
f 8/119/3 68/129/3 69/120/3
f 69/120/3 66/130/3 19/55/3
f 66/121/13 67/132/13 20/122/13
f 65/124/14 68/133/14 8/125/14
f 70/118/1 65/134/1 7/127/1
f 67/128/1 45/85/1 74/72/1
f 72/81/3 73/79/3 69/120/3
f 73/79/3 43/76/3 66/130/3
f 43/131/15 45/274/15 67/132/15
f 71/75/16 72/74/16 68/133/16
f 74/72/1 71/71/1 65/134/1
f 82/135/1 80/177/1 103/136/1
f 80/138/17 79/159/17 104/139/17
f 75/141/3 84/145/3 85/142/3
f 104/146/3 79/157/3 84/145/3
f 93/147/5 94/275/5 77/148/5
f 93/151/3 75/141/3 83/143/3
f 83/153/4 81/168/4 87/154/4
f 90/156/3 84/145/3 79/157/3
f 79/159/5 80/138/5 96/160/5
f 88/162/1 82/135/1 77/150/1
f 89/164/4 92/276/4 76/165/4
f 85/167/4 88/277/4 81/168/4
f 96/169/1 80/177/1 76/170/1
f 94/172/6 93/278/6 86/155/6
f 81/163/1 77/150/1 94/173/1
f 78/158/3 79/157/3 95/175/3
f 80/177/1 82/135/1 91/178/1
f 95/161/7 96/160/7 92/179/7
f 78/166/4 76/165/4 91/181/4
f 3/183/1 99/193/1 102/184/1
f 4/52/3 100/194/3 101/185/3
f 101/185/3 98/195/3 1/186/3
f 98/187/18 99/197/18 3/188/18
f 97/190/19 100/198/19 4/191/19
f 102/184/1 97/199/1 2/63/1
f 99/193/1 77/150/1 106/137/1
f 104/146/3 105/144/3 101/185/3
f 105/144/3 75/141/3 98/195/3
f 75/196/20 77/279/20 99/197/20
f 103/140/21 104/139/21 100/198/21
f 106/137/1 103/136/1 97/199/1
f 135/200/1 112/243/1 114/201/1
f 136/203/22 111/280/22 112/204/22
f 117/206/3 116/210/3 107/207/3
f 136/211/3 137/209/3 116/210/3
f 109/213/5 126/236/5 125/214/5
f 115/208/3 107/207/3 125/217/3
f 119/219/4 113/230/4 115/220/4
f 122/222/3 110/240/3 111/212/3
f 128/223/5 112/281/5 111/224/5
f 120/226/1 113/238/1 109/216/1
f 108/227/4 124/244/4 121/228/4
f 113/230/4 120/282/4 117/231/4
f 108/232/1 112/243/1 128/233/1
f 118/235/7 125/214/7 126/236/7
f 113/238/1 119/283/1 126/239/1
f 110/240/3 121/284/3 127/241/3
f 123/242/1 114/201/1 112/243/1
f 124/244/6 128/285/6 127/245/6
f 123/246/4 108/227/4 110/229/4
f 3/183/1 6/64/1 134/248/1
f 8/119/3 5/56/3 133/250/3
f 1/186/3 130/258/3 133/250/3
f 3/252/23 131/259/23 130/253/23
f 8/255/24 132/261/24 129/256/24
f 7/127/1 129/262/1 134/248/1
f 131/249/1 134/248/1 138/202/1
f 133/250/3 137/209/3 136/211/3
f 130/258/3 107/207/3 137/209/3
f 131/259/25 109/286/25 107/260/25
f 132/261/26 136/203/26 135/205/26
f 129/262/1 135/200/1 138/202/1
