# Blender v3.5.0 OBJ File: 'player.blend'
# www.blender.org
mtllib pLArm2.mtl
o 立方体.004
v 0.308941 -0.268095 -0.218216
v 0.308941 0.203339 -0.218216
v 0.308941 -0.268095 0.218216
v 0.308941 0.203339 0.218216
v 1.830575 -0.326886 -0.381318
v 1.830575 0.360115 -0.381318
v 1.830575 -0.326886 0.381318
v 1.830575 0.360115 0.381318
vt 0.646096 0.778222
vt 0.630636 0.794922
vt 0.630636 0.778222
vt 0.646096 0.717926
vt 0.627314 0.663716
vt 0.644014 0.663716
vt 0.889925 0.764598
vt 0.914261 0.791614
vt 0.889925 0.791614
vt 0.030148 0.715612
vt 0.048930 0.661401
vt 0.054484 0.715612
vt 0.642998 0.549478
vt 0.621760 0.603420
vt 0.627538 0.549478
vt 0.612843 0.470370
vt 0.634081 0.416183
vt 0.639858 0.470370
vt 0.646096 0.794922
vt 0.621760 0.717926
vt 0.914261 0.764598
vt 0.032230 0.661401
vt 0.648776 0.603420
vt 0.618621 0.416183
vn -1.0000 0.0000 0.0000
vn -0.1066 0.0000 0.9943
vn 1.0000 0.0000 0.0000
vn -0.1066 0.0000 -0.9943
vn -0.0386 -0.9993 0.0000
vn -0.1025 0.9947 0.0000
usemtl マテリアル.005
s off
f 3/1/1 2/2/1 1/3/1
f 7/4/2 4/5/2 3/6/2
f 5/7/3 8/8/3 7/9/3
f 5/10/4 2/11/4 6/12/4
f 1/13/5 7/14/5 3/15/5
f 6/16/6 4/17/6 8/18/6
f 3/1/1 4/19/1 2/2/1
f 7/4/2 8/20/2 4/5/2
f 5/7/3 6/21/3 8/8/3
f 5/10/4 1/22/4 2/11/4
f 1/13/5 5/23/5 7/14/5
f 6/16/6 2/24/6 4/17/6
